<svg xmlns="http://www.w3.org/2000/svg" xmlns:xlink="http://www.w3.org/1999/xlink" width="500" zoomAndPan="magnify" viewBox="0 0 375 374.999991" height="500" preserveAspectRatio="xMidYMid meet" version="1.0"><defs><g/><clipPath id="4060d6d6b5"><path d="M 37.757812 100 L 50 100 L 50 112 L 37.757812 112 Z M 37.757812 100 " clip-rule="nonzero"/></clipPath><clipPath id="185d2413ae"><path d="M 136 53.265625 L 176 53.265625 L 176 174 L 136 174 Z M 136 53.265625 " clip-rule="nonzero"/></clipPath><clipPath id="c33a660c3d"><path d="M 191 53.265625 L 239 53.265625 L 239 175 L 191 175 Z M 191 53.265625 " clip-rule="nonzero"/></clipPath><clipPath id="b8fa749ed9"><path d="M 91 138 L 284 138 L 284 208.515625 L 91 208.515625 Z M 91 138 " clip-rule="nonzero"/></clipPath></defs><path fill="#8294c4" d="M 75.15625 87.265625 L 87.472656 114.382812 C 102.53125 82.074219 69.378906 71.820312 69.378906 71.820312 L 69.410156 71.898438 C 68.773438 72.941406 51.761719 101.464844 83.40625 115.785156 L 75.15625 87.265625 " fill-opacity="1" fill-rule="nonzero"/><path fill="#8294c4" d="M 55.019531 120.371094 L 77.488281 124.367188 C 56.363281 141.679688 42.457031 119.015625 42.457031 119.015625 L 42.519531 119.023438 C 43.171875 118.351562 61.117188 100.300781 77.757812 121.078125 L 55.019531 120.371094 " fill-opacity="1" fill-rule="nonzero"/><path fill="#8294c4" d="M 94.777344 126.152344 C 94.777344 129.351562 92.1875 131.941406 88.988281 131.941406 C 85.792969 131.941406 83.203125 129.351562 83.203125 126.152344 C 83.203125 122.957031 85.792969 120.367188 88.988281 120.367188 C 92.1875 120.367188 94.777344 122.957031 94.777344 126.152344 " fill-opacity="1" fill-rule="nonzero"/><g clip-path="url(#4060d6d6b5)"><path fill="#8294c4" d="M 43.535156 111.636719 C 40.339844 111.636719 37.75 109.046875 37.75 105.851562 C 37.75 102.65625 40.339844 100.0625 43.535156 100.0625 C 46.734375 100.0625 49.324219 102.65625 49.324219 105.851562 C 49.324219 109.046875 46.734375 111.636719 43.535156 111.636719 " fill-opacity="1" fill-rule="nonzero"/></g><path fill="#8294c4" d="M 99.597656 82.0625 C 101.324219 83.789062 101.324219 86.59375 99.597656 88.320312 C 97.867188 90.050781 95.066406 90.050781 93.339844 88.320312 C 91.613281 86.59375 91.613281 83.789062 93.339844 82.0625 C 95.066406 80.335938 97.867188 80.335938 99.597656 82.0625 " fill-opacity="1" fill-rule="nonzero"/><path fill="#8294c4" d="M 61.683594 99.785156 C 62.5 100.597656 62.5 101.917969 61.683594 102.734375 C 60.871094 103.546875 59.550781 103.546875 58.738281 102.734375 C 57.925781 101.917969 57.925781 100.597656 58.738281 99.785156 C 59.550781 98.972656 60.871094 98.972656 61.683594 99.785156 " fill-opacity="1" fill-rule="nonzero"/><path fill="#8294c4" d="M 49.628906 133.167969 C 51.136719 133.167969 52.359375 134.390625 52.359375 135.898438 C 52.359375 137.40625 51.136719 138.628906 49.628906 138.628906 C 48.121094 138.628906 46.898438 137.40625 46.898438 135.898438 C 46.898438 134.390625 48.121094 133.167969 49.628906 133.167969 " fill-opacity="1" fill-rule="nonzero"/><path fill="#8294c4" d="M 299.59375 87.265625 L 287.273438 114.382812 C 272.21875 82.074219 305.367188 71.820312 305.367188 71.820312 L 305.339844 71.898438 C 305.976562 72.941406 322.988281 101.464844 291.34375 115.78125 L 299.59375 87.265625 " fill-opacity="1" fill-rule="nonzero"/><path fill="#8294c4" d="M 319.730469 120.371094 L 297.257812 124.363281 C 318.382812 141.679688 332.292969 119.015625 332.292969 119.015625 L 332.230469 119.019531 C 331.574219 118.351562 313.628906 100.300781 296.992188 121.078125 L 319.730469 120.371094 " fill-opacity="1" fill-rule="nonzero"/><path fill="#8294c4" d="M 279.972656 126.152344 C 279.972656 129.351562 282.5625 131.941406 285.757812 131.941406 C 288.953125 131.941406 291.546875 129.351562 291.546875 126.152344 C 291.546875 122.957031 288.953125 120.367188 285.757812 120.367188 C 282.5625 120.367188 279.972656 122.957031 279.972656 126.152344 " fill-opacity="1" fill-rule="nonzero"/><path fill="#8294c4" d="M 331.210938 111.640625 C 334.40625 111.640625 336.996094 109.046875 336.996094 105.851562 C 336.996094 102.65625 334.40625 100.0625 331.210938 100.0625 C 328.015625 100.0625 325.421875 102.65625 325.421875 105.851562 C 325.421875 109.046875 328.015625 111.640625 331.210938 111.640625 " fill-opacity="1" fill-rule="nonzero"/><path fill="#8294c4" d="M 275.152344 82.0625 C 273.421875 83.789062 273.421875 86.59375 275.152344 88.320312 C 276.878906 90.050781 279.679688 90.050781 281.410156 88.320312 C 283.136719 86.59375 283.136719 83.789062 281.410156 82.0625 C 279.679688 80.335938 276.878906 80.335938 275.152344 82.0625 " fill-opacity="1" fill-rule="nonzero"/><path fill="#8294c4" d="M 313.0625 99.785156 C 312.246094 100.601562 312.246094 101.917969 313.0625 102.734375 C 313.875 103.546875 315.195312 103.546875 316.011719 102.734375 C 316.824219 101.917969 316.824219 100.601562 316.011719 99.785156 C 315.195312 98.972656 313.875 98.972656 313.0625 99.785156 " fill-opacity="1" fill-rule="nonzero"/><path fill="#8294c4" d="M 325.121094 133.167969 C 323.609375 133.167969 322.386719 134.390625 322.386719 135.898438 C 322.386719 137.40625 323.609375 138.628906 325.121094 138.628906 C 326.628906 138.628906 327.851562 137.40625 327.851562 135.898438 C 327.851562 134.390625 326.628906 133.167969 325.121094 133.167969 " fill-opacity="1" fill-rule="nonzero"/><g clip-path="url(#185d2413ae)"><path fill="#ffe0bd" d="M 151.074219 144.351562 L 149.613281 168.144531 C 153.832031 170.300781 158.246094 172.097656 162.808594 173.503906 L 161.015625 144.351562 C 160.410156 134.46875 163.554688 124.566406 170.328125 117.34375 C 173.609375 113.847656 175.621094 109.144531 175.621094 103.96875 L 175.621094 53.320312 L 170.027344 53.320312 L 170.027344 96.820312 C 170.027344 98.367188 168.773438 99.617188 167.230469 99.617188 C 165.6875 99.617188 164.433594 98.367188 164.433594 96.820312 L 164.433594 53.320312 L 158.839844 53.320312 L 158.839844 96.820312 C 158.839844 98.367188 157.589844 99.617188 156.046875 99.617188 C 154.5 99.617188 153.25 98.367188 153.25 96.820312 L 153.25 53.320312 L 147.65625 53.320312 L 147.65625 96.820312 C 147.65625 98.367188 146.40625 99.617188 144.859375 99.617188 C 143.316406 99.617188 142.0625 98.367188 142.0625 96.820312 L 142.0625 53.320312 L 136.472656 53.320312 L 136.472656 103.96875 C 136.472656 109.144531 138.480469 113.847656 141.761719 117.34375 C 148.535156 124.566406 151.679688 134.46875 151.074219 144.351562 " fill-opacity="1" fill-rule="nonzero"/></g><g clip-path="url(#c33a660c3d)"><path fill="#ffe0bd" d="M 210.144531 143.753906 L 208.253906 174.542969 C 212.855469 173.359375 217.328125 171.789062 221.617188 169.847656 L 220.011719 143.753906 C 219.4375 134.414062 222.472656 125.152344 228.695312 118.167969 C 234.5 111.65625 238.277344 101.085938 238.277344 89.15625 C 238.277344 69.367188 227.890625 53.320312 215.078125 53.320312 C 202.265625 53.320312 191.878906 69.367188 191.878906 89.15625 C 191.878906 101.085938 195.65625 111.65625 201.460938 118.167969 C 207.6875 125.152344 210.71875 134.414062 210.144531 143.753906 " fill-opacity="1" fill-rule="nonzero"/></g><g clip-path="url(#b8fa749ed9)"><path fill="#ffe0bd" d="M 276.765625 140.261719 C 276.6875 140.222656 276.613281 140.183594 276.535156 140.144531 C 270.867188 137.253906 263.871094 138.972656 260.328125 144.261719 C 243.070312 169.996094 215.222656 182.863281 187.375 182.863281 C 159.527344 182.863281 131.675781 169.996094 114.421875 144.261719 C 110.878906 138.972656 103.882812 137.253906 98.214844 140.144531 C 98.136719 140.183594 98.058594 140.222656 97.984375 140.261719 C 91.242188 143.699219 88.949219 152.261719 93.15625 158.554688 C 115.417969 191.835938 151.398438 208.476562 187.375 208.476562 C 223.351562 208.476562 259.328125 191.835938 281.59375 158.554688 C 285.800781 152.261719 283.507812 143.699219 276.765625 140.261719 " fill-opacity="1" fill-rule="nonzero"/></g><g fill="#8294c4" fill-opacity="1"><g transform="translate(108.056454, 262.623811)"><g><path d="M 3.453125 0 L 11.632812 0 C 11.121094 -1.660156 10.863281 -3.792969 10.863281 -6.648438 L 10.863281 -11.460938 L 24.796875 -11.460938 C 26.84375 -11.460938 28.25 -11.375 29.269531 -11.207031 L 29.269531 -17.257812 C 28.25 -17.085938 26.84375 -17 24.796875 -17 L 10.863281 -17 L 10.863281 -24.03125 L 27.695312 -24.03125 C 30.59375 -24.03125 32.722656 -23.773438 33.746094 -23.261719 L 32.636719 -29.824219 L 3.453125 -29.824219 C 3.917969 -28.164062 4.21875 -25.5625 4.21875 -22.667969 L 4.21875 -7.15625 C 4.21875 -4.261719 3.960938 -1.660156 3.453125 0 Z M 3.453125 0 "/></g></g></g><g fill="#8294c4" fill-opacity="1"><g transform="translate(143.84626, 262.623811)"><g><path d="M 20.367188 0.597656 C 31.019531 0.597656 38.816406 -5.242188 38.816406 -14.914062 C 38.816406 -24.585938 31.019531 -30.421875 20.367188 -30.421875 C 9.714844 -30.421875 1.917969 -24.585938 1.917969 -14.914062 C 1.917969 -5.242188 9.714844 0.597656 20.367188 0.597656 Z M 20.367188 -4.6875 C 13.675781 -4.6875 8.648438 -8.605469 8.648438 -14.914062 C 8.648438 -21.261719 13.675781 -25.136719 20.367188 -25.136719 C 27.054688 -25.136719 32.082031 -21.261719 32.082031 -14.914062 C 32.082031 -8.605469 27.054688 -4.6875 20.367188 -4.6875 Z M 20.367188 -4.6875 "/></g></g></g><g fill="#8294c4" fill-opacity="1"><g transform="translate(185.430581, 262.623811)"><g><path d="M 20.367188 0.597656 C 31.019531 0.597656 38.816406 -5.242188 38.816406 -14.914062 C 38.816406 -24.585938 31.019531 -30.421875 20.367188 -30.421875 C 9.714844 -30.421875 1.917969 -24.585938 1.917969 -14.914062 C 1.917969 -5.242188 9.714844 0.597656 20.367188 0.597656 Z M 20.367188 -4.6875 C 13.675781 -4.6875 8.648438 -8.605469 8.648438 -14.914062 C 8.648438 -21.261719 13.675781 -25.136719 20.367188 -25.136719 C 27.054688 -25.136719 32.082031 -21.261719 32.082031 -14.914062 C 32.082031 -8.605469 27.054688 -4.6875 20.367188 -4.6875 Z M 20.367188 -4.6875 "/></g></g></g><g fill="#8294c4" fill-opacity="1"><g transform="translate(227.014901, 262.623811)"><g><path d="M 3.453125 0 L 20.664062 0 C 31.144531 0 38.003906 -5.625 38.003906 -14.914062 C 38.003906 -24.199219 31.144531 -29.824219 20.664062 -29.824219 L 3.453125 -29.824219 C 3.917969 -28.164062 4.261719 -25.5625 4.261719 -22.667969 L 4.261719 -7.15625 C 4.261719 -4.261719 3.960938 -1.660156 3.453125 0 Z M 10.863281 -5.835938 L 10.863281 -24.03125 L 20.195312 -24.03125 C 26.628906 -24.03125 31.1875 -20.621094 31.1875 -14.914062 C 31.1875 -9.203125 26.628906 -5.835938 20.195312 -5.835938 Z M 10.863281 -5.835938 "/></g></g></g><g fill="#8294c4" fill-opacity="1"><g transform="translate(43.014226, 307.023737)"><g><path d="M 3.453125 0 L 11.632812 0 C 11.121094 -1.660156 10.863281 -4.175781 10.863281 -7.03125 L 10.90625 -16.105469 L 11.25 -16.105469 C 12.3125 -10.269531 17.339844 -7.625 24.160156 -7.625 C 31.230469 -7.625 36.472656 -11.800781 36.472656 -18.917969 C 36.472656 -25.949219 30.550781 -29.824219 22.539062 -29.824219 L 3.453125 -29.824219 C 3.917969 -28.164062 4.261719 -25.5625 4.261719 -22.667969 L 4.261719 -7.15625 C 4.261719 -4.261719 3.960938 -1.660156 3.453125 0 Z M 21.644531 -13.039062 C 16.277344 -13.039062 10.949219 -16.0625 10.90625 -21.261719 L 10.90625 -24.160156 C 14.273438 -24.5 17.683594 -24.542969 21.515625 -24.542969 C 26.800781 -24.542969 29.824219 -22.410156 29.824219 -18.917969 C 29.824219 -15.253906 25.992188 -13.039062 21.644531 -13.039062 Z M 21.644531 -13.039062 "/></g></g></g><g fill="#8294c4" fill-opacity="1"><g transform="translate(81.488246, 307.023737)"><g><path d="M -0.511719 0 L 7.839844 0 C 8.011719 -1.109375 8.734375 -2.515625 9.757812 -4.6875 L 10.992188 -6.988281 L 27.90625 -6.988281 L 29.144531 -4.730469 C 30.378906 -2.515625 30.890625 -1.152344 31.0625 0 L 39.410156 0 C 38.261719 -1.660156 36.597656 -4.386719 35.195312 -7.15625 L 27.011719 -22.710938 C 25.863281 -25.054688 25.09375 -27.90625 24.710938 -29.824219 L 14.273438 -29.824219 C 13.976562 -28.164062 13.25 -25.480469 11.84375 -22.667969 L 3.75 -7.15625 C 2.300781 -4.429688 0.640625 -1.660156 -0.511719 0 Z M 13.464844 -12.058594 L 17.382812 -19.640625 C 18.152344 -21.304688 18.660156 -22.667969 19.257812 -24.371094 L 19.640625 -24.371094 C 20.195312 -22.710938 20.75 -21.261719 21.472656 -19.683594 L 25.4375 -12.058594 Z M 13.464844 -12.058594 "/></g></g></g><g fill="#8294c4" fill-opacity="1"><g transform="translate(121.240469, 307.023737)"><g><path d="M 34.257812 0.640625 C 36.429688 0.640625 38.472656 -0.253906 39.453125 -1.578125 L 39.15625 -8.949219 C 38.390625 -7.117188 37.367188 -5.964844 35.066406 -5.964844 C 30.378906 -5.964844 31.402344 -13.507812 22.453125 -13.507812 L 22.113281 -13.507812 L 22.113281 -13.847656 L 24.710938 -13.847656 C 31.570312 -13.847656 36.214844 -17.214844 36.214844 -22.027344 C 36.214844 -27.054688 31.273438 -29.824219 24.117188 -29.824219 L 3.492188 -29.824219 C 3.960938 -28.164062 4.261719 -25.5625 4.261719 -22.667969 L 4.261719 -7.15625 C 4.261719 -4.261719 3.960938 -1.703125 3.492188 0 L 11.675781 0 C 11.164062 -1.703125 10.90625 -4.003906 10.90625 -6.859375 L 10.90625 -11.289062 C 11.886719 -11.589844 15.253906 -11.675781 16.488281 -11.675781 C 28.71875 -11.675781 23.136719 0.640625 34.257812 0.640625 Z M 10.90625 -16.402344 L 10.90625 -24.074219 L 23.433594 -24.074219 C 27.097656 -24.074219 29.570312 -22.625 29.570312 -20.238281 C 29.570312 -17.765625 27.054688 -16.402344 23.136719 -16.402344 Z M 10.90625 -16.402344 "/></g></g></g><g fill="#8294c4" fill-opacity="1"><g transform="translate(162.015254, 307.023737)"><g><path d="M -0.511719 0 L 7.839844 0 C 8.011719 -1.109375 8.734375 -2.515625 9.757812 -4.6875 L 10.992188 -6.988281 L 27.90625 -6.988281 L 29.144531 -4.730469 C 30.378906 -2.515625 30.890625 -1.152344 31.0625 0 L 39.410156 0 C 38.261719 -1.660156 36.597656 -4.386719 35.195312 -7.15625 L 27.011719 -22.710938 C 25.863281 -25.054688 25.09375 -27.90625 24.710938 -29.824219 L 14.273438 -29.824219 C 13.976562 -28.164062 13.25 -25.480469 11.84375 -22.667969 L 3.75 -7.15625 C 2.300781 -4.429688 0.640625 -1.660156 -0.511719 0 Z M 13.464844 -12.058594 L 17.382812 -19.640625 C 18.152344 -21.304688 18.660156 -22.667969 19.257812 -24.371094 L 19.640625 -24.371094 C 20.195312 -22.710938 20.75 -21.261719 21.472656 -19.683594 L 25.4375 -12.058594 Z M 13.464844 -12.058594 "/></g></g></g><g fill="#8294c4" fill-opacity="1"><g transform="translate(201.767478, 307.023737)"><g><path d="M 3.453125 0 L 20.664062 0 C 31.144531 0 38.003906 -5.625 38.003906 -14.914062 C 38.003906 -24.199219 31.144531 -29.824219 20.664062 -29.824219 L 3.453125 -29.824219 C 3.917969 -28.164062 4.261719 -25.5625 4.261719 -22.667969 L 4.261719 -7.15625 C 4.261719 -4.261719 3.960938 -1.660156 3.453125 0 Z M 10.863281 -5.835938 L 10.863281 -24.03125 L 20.195312 -24.03125 C 26.628906 -24.03125 31.1875 -20.621094 31.1875 -14.914062 C 31.1875 -9.203125 26.628906 -5.835938 20.195312 -5.835938 Z M 10.863281 -5.835938 "/></g></g></g><g fill="#8294c4" fill-opacity="1"><g transform="translate(242.542263, 307.023737)"><g><path d="M 3.453125 0 L 11.632812 0 C 11.164062 -1.660156 10.863281 -4.261719 10.863281 -7.15625 L 10.863281 -22.667969 C 10.863281 -25.5625 11.164062 -28.164062 11.632812 -29.824219 L 3.453125 -29.824219 C 3.917969 -28.164062 4.21875 -25.5625 4.21875 -22.667969 L 4.21875 -7.15625 C 4.21875 -4.261719 3.960938 -1.660156 3.453125 0 Z M 3.453125 0 "/></g></g></g><g fill="#8294c4" fill-opacity="1"><g transform="translate(258.519936, 307.023737)"><g><path d="M 18.492188 0.597656 C 28.207031 0.597656 34.382812 -2.855469 34.382812 -8.5625 C 34.382812 -20.75 9.03125 -15.082031 9.03125 -21.558594 C 9.03125 -24.117188 13.292969 -24.796875 18.109375 -24.796875 C 23.136719 -24.796875 28.25 -23.5625 31.402344 -21.730469 L 31.402344 -28.035156 C 28.035156 -29.441406 22.710938 -30.421875 17.851562 -30.421875 C 9.203125 -30.421875 2.171875 -27.394531 2.171875 -21.644531 C 2.171875 -9.332031 27.480469 -14.742188 27.480469 -8.519531 C 27.480469 -5.878906 23.773438 -4.984375 18.363281 -4.984375 C 12.226562 -4.984375 6.347656 -6.347656 1.875 -9.203125 L 1.578125 -2.429688 C 6.21875 -0.597656 13.335938 0.597656 18.492188 0.597656 Z M 18.492188 0.597656 "/></g></g></g><g fill="#8294c4" fill-opacity="1"><g transform="translate(295.417527, 307.023737)"><g><path d="M 3.453125 0 L 33.488281 0 L 34.726562 -6.773438 C 33.488281 -6.09375 31.570312 -5.667969 28.207031 -5.667969 L 10.863281 -5.667969 L 10.863281 -12.1875 L 24.585938 -12.1875 C 26.628906 -12.1875 28.035156 -12.101562 29.058594 -11.929688 L 29.058594 -17.980469 C 28.035156 -17.808594 26.628906 -17.722656 24.585938 -17.722656 L 10.863281 -17.722656 L 10.863281 -24.160156 L 27.90625 -24.160156 C 30.847656 -24.160156 32.722656 -23.859375 33.703125 -23.390625 L 32.636719 -29.824219 L 3.453125 -29.824219 C 3.917969 -28.164062 4.261719 -25.5625 4.261719 -22.667969 L 4.261719 -7.15625 C 4.261719 -4.261719 3.960938 -1.660156 3.453125 0 Z M 3.453125 0 "/></g></g></g></svg>