<svg xmlns="http://www.w3.org/2000/svg" xmlns:xlink="http://www.w3.org/1999/xlink" width="500" zoomAndPan="magnify" viewBox="0 0 375 374.999991" height="500" preserveAspectRatio="xMidYMid meet" version="1.0"><defs><g/><clipPath id="1624096f8f"><path d="M 8.875 83 L 23 83 L 23 98 L 8.875 98 Z M 8.875 83 " clip-rule="nonzero"/></clipPath><clipPath id="1984d3b25c"><path d="M 352 83 L 365.875 83 L 365.875 98 L 352 98 Z M 352 83 " clip-rule="nonzero"/></clipPath><clipPath id="f50f91789d"><path d="M 126 27.371094 L 174 27.371094 L 174 171 L 126 171 Z M 126 27.371094 " clip-rule="nonzero"/></clipPath><clipPath id="a9cf9892ba"><path d="M 192 27.371094 L 249 27.371094 L 249 173 L 192 173 Z M 192 27.371094 " clip-rule="nonzero"/></clipPath><clipPath id="41408ff52a"><path d="M 72 129 L 303 129 L 303 212.621094 L 72 212.621094 Z M 72 129 " clip-rule="nonzero"/></clipPath></defs><path fill="#8294c4" d="M 53.488281 67.941406 L 68.183594 100.296875 C 86.144531 61.746094 46.597656 49.511719 46.597656 49.511719 L 46.632812 49.601562 C 45.871094 50.847656 25.578125 84.882812 63.328125 101.972656 L 53.488281 67.941406 " fill-opacity="1" fill-rule="nonzero"/><path fill="#8294c4" d="M 29.46875 107.441406 L 56.273438 112.210938 C 31.070312 132.871094 14.480469 105.824219 14.480469 105.824219 L 14.554688 105.835938 C 15.332031 105.035156 36.742188 83.496094 56.59375 108.289062 L 29.46875 107.441406 " fill-opacity="1" fill-rule="nonzero"/><path fill="#8294c4" d="M 76.894531 114.34375 C 76.894531 118.160156 73.804688 121.25 69.992188 121.25 C 66.179688 121.25 63.089844 118.160156 63.089844 114.34375 C 63.089844 110.53125 66.179688 107.4375 69.992188 107.4375 C 73.804688 107.4375 76.894531 110.53125 76.894531 114.34375 " fill-opacity="1" fill-rule="nonzero"/><g clip-path="url(#1624096f8f)"><path fill="#8294c4" d="M 15.769531 97.023438 C 11.957031 97.023438 8.863281 93.929688 8.863281 90.117188 C 8.863281 86.304688 11.957031 83.210938 15.769531 83.210938 C 19.582031 83.210938 22.671875 86.304688 22.671875 90.117188 C 22.671875 93.929688 19.582031 97.023438 15.769531 97.023438 " fill-opacity="1" fill-rule="nonzero"/></g><path fill="#8294c4" d="M 82.648438 61.734375 C 84.707031 63.792969 84.707031 67.140625 82.648438 69.199219 C 80.585938 71.261719 77.242188 71.261719 75.183594 69.199219 C 73.121094 67.140625 73.121094 63.792969 75.183594 61.734375 C 77.242188 59.671875 80.585938 59.671875 82.648438 61.734375 " fill-opacity="1" fill-rule="nonzero"/><path fill="#8294c4" d="M 37.417969 82.878906 C 38.390625 83.851562 38.390625 85.425781 37.417969 86.398438 C 36.445312 87.367188 34.871094 87.367188 33.902344 86.398438 C 32.933594 85.425781 32.933594 83.851562 33.902344 82.878906 C 34.871094 81.910156 36.445312 81.910156 37.417969 82.878906 " fill-opacity="1" fill-rule="nonzero"/><path fill="#8294c4" d="M 23.035156 122.714844 C 24.835938 122.714844 26.292969 124.171875 26.292969 125.972656 C 26.292969 127.773438 24.835938 129.230469 23.035156 129.230469 C 21.238281 129.230469 19.777344 127.773438 19.777344 125.972656 C 19.777344 124.171875 21.238281 122.714844 23.035156 122.714844 " fill-opacity="1" fill-rule="nonzero"/><path fill="#8294c4" d="M 321.238281 67.941406 L 306.542969 100.296875 C 288.582031 61.742188 328.128906 49.511719 328.128906 49.511719 L 328.09375 49.601562 C 328.855469 50.847656 349.148438 84.882812 311.394531 101.96875 L 321.238281 67.941406 " fill-opacity="1" fill-rule="nonzero"/><path fill="#8294c4" d="M 345.261719 107.441406 L 318.453125 112.210938 C 343.65625 132.871094 360.246094 105.824219 360.246094 105.824219 L 360.175781 105.835938 C 359.394531 105.035156 337.984375 83.496094 318.136719 108.289062 L 345.261719 107.441406 " fill-opacity="1" fill-rule="nonzero"/><path fill="#8294c4" d="M 297.832031 114.34375 C 297.832031 118.160156 300.921875 121.25 304.734375 121.25 C 308.546875 121.25 311.640625 118.160156 311.640625 114.34375 C 311.640625 110.53125 308.546875 107.4375 304.734375 107.4375 C 300.921875 107.4375 297.832031 110.53125 297.832031 114.34375 " fill-opacity="1" fill-rule="nonzero"/><g clip-path="url(#1984d3b25c)"><path fill="#8294c4" d="M 358.957031 97.027344 C 362.769531 97.027344 365.859375 93.933594 365.859375 90.121094 C 365.859375 86.304688 362.769531 83.210938 358.957031 83.210938 C 355.144531 83.210938 352.054688 86.304688 352.054688 90.121094 C 352.054688 93.933594 355.144531 97.027344 358.957031 97.027344 " fill-opacity="1" fill-rule="nonzero"/></g><path fill="#8294c4" d="M 292.082031 61.734375 C 290.019531 63.792969 290.019531 67.140625 292.082031 69.199219 C 294.140625 71.261719 297.484375 71.261719 299.542969 69.199219 C 301.605469 67.140625 301.605469 63.792969 299.542969 61.734375 C 297.484375 59.671875 294.140625 59.671875 292.082031 61.734375 " fill-opacity="1" fill-rule="nonzero"/><path fill="#8294c4" d="M 337.308594 82.882812 C 336.335938 83.851562 336.335938 85.425781 337.308594 86.398438 C 338.277344 87.371094 339.855469 87.371094 340.824219 86.398438 C 341.796875 85.425781 341.796875 83.851562 340.824219 82.882812 C 339.855469 81.910156 338.277344 81.910156 337.308594 82.882812 " fill-opacity="1" fill-rule="nonzero"/><path fill="#8294c4" d="M 351.691406 122.714844 C 349.890625 122.714844 348.433594 124.171875 348.433594 125.972656 C 348.433594 127.773438 349.890625 129.230469 351.691406 129.230469 C 353.488281 129.230469 354.949219 127.773438 354.949219 125.972656 C 354.949219 124.171875 353.488281 122.714844 351.691406 122.714844 " fill-opacity="1" fill-rule="nonzero"/><g clip-path="url(#f50f91789d)"><path fill="#ffead2" d="M 144.058594 136.0625 L 142.316406 164.449219 C 147.347656 167.023438 152.613281 169.167969 158.054688 170.847656 L 155.917969 136.0625 C 155.195312 124.269531 158.945312 112.449219 167.027344 103.832031 C 170.941406 99.660156 173.339844 94.046875 173.339844 87.871094 L 173.339844 27.4375 L 166.667969 27.4375 L 166.667969 79.34375 C 166.667969 81.1875 165.175781 82.679688 163.332031 82.679688 C 161.488281 82.679688 159.996094 81.1875 159.996094 79.34375 L 159.996094 27.4375 L 153.324219 27.4375 L 153.324219 79.34375 C 153.324219 81.1875 151.832031 82.679688 149.988281 82.679688 C 148.148438 82.679688 146.652344 81.1875 146.652344 79.34375 L 146.652344 27.4375 L 139.980469 27.4375 L 139.980469 79.34375 C 139.980469 81.1875 138.488281 82.679688 136.644531 82.679688 C 134.804688 82.679688 133.308594 81.1875 133.308594 79.34375 L 133.308594 27.4375 L 126.636719 27.4375 L 126.636719 87.871094 C 126.636719 94.046875 129.035156 99.660156 132.949219 103.832031 C 141.03125 112.449219 144.78125 124.269531 144.058594 136.0625 " fill-opacity="1" fill-rule="nonzero"/></g><g clip-path="url(#a9cf9892ba)"><path fill="#ffead2" d="M 214.527344 135.347656 L 212.273438 172.089844 C 217.761719 170.671875 223.097656 168.800781 228.214844 166.484375 L 226.300781 135.347656 C 225.617188 124.203125 229.234375 113.148438 236.660156 104.8125 C 243.585938 97.042969 248.089844 84.433594 248.089844 70.199219 C 248.089844 46.582031 235.699219 27.4375 220.414062 27.4375 C 205.128906 27.4375 192.738281 46.582031 192.738281 70.199219 C 192.738281 84.433594 197.242188 97.042969 204.167969 104.8125 C 211.597656 113.148438 215.210938 124.203125 214.527344 135.347656 " fill-opacity="1" fill-rule="nonzero"/></g><g clip-path="url(#41408ff52a)"><path fill="#ffead2" d="M 294.003906 131.179688 C 293.914062 131.132812 293.824219 131.085938 293.730469 131.039062 C 286.96875 127.59375 278.625 129.644531 274.394531 135.949219 C 253.808594 166.664062 220.585938 182.015625 187.363281 182.015625 C 154.140625 182.015625 120.917969 166.664062 100.332031 135.949219 C 96.105469 129.644531 87.757812 127.59375 80.996094 131.039062 C 80.902344 131.085938 80.8125 131.132812 80.722656 131.179688 C 72.679688 135.28125 69.941406 145.5 74.960938 153.007812 C 101.523438 192.722656 144.445312 212.582031 187.363281 212.582031 C 230.285156 212.582031 273.203125 192.722656 299.765625 153.007812 C 304.785156 145.5 302.046875 135.28125 294.003906 131.179688 " fill-opacity="1" fill-rule="nonzero"/></g><g fill="#8294c4" fill-opacity="1"><g transform="translate(92.73232, 277.114711)"><g><path d="M 4.117188 0 L 13.875 0 C 13.265625 -1.980469 12.960938 -4.523438 12.960938 -7.929688 L 12.960938 -13.671875 L 29.582031 -13.671875 C 32.019531 -13.671875 33.699219 -13.570312 34.917969 -13.367188 L 34.917969 -20.585938 C 33.699219 -20.382812 32.019531 -20.28125 29.582031 -20.28125 L 12.960938 -20.28125 L 12.960938 -28.664062 L 33.035156 -28.664062 C 36.492188 -28.664062 39.035156 -28.359375 40.253906 -27.75 L 38.933594 -35.578125 L 4.117188 -35.578125 C 4.675781 -33.597656 5.03125 -30.496094 5.03125 -27.039062 L 5.03125 -8.539062 C 5.03125 -5.082031 4.726562 -1.980469 4.117188 0 Z M 4.117188 0 "/></g></g></g><g fill="#8294c4" fill-opacity="1"><g transform="translate(135.425743, 277.114711)"><g><path d="M 24.292969 0.710938 C 37 0.710938 46.300781 -6.25 46.300781 -17.789062 C 46.300781 -29.328125 37 -36.289062 24.292969 -36.289062 C 11.589844 -36.289062 2.289062 -29.328125 2.289062 -17.789062 C 2.289062 -6.25 11.589844 0.710938 24.292969 0.710938 Z M 24.292969 -5.589844 C 16.316406 -5.589844 10.316406 -10.265625 10.316406 -17.789062 C 10.316406 -25.363281 16.316406 -29.988281 24.292969 -29.988281 C 32.273438 -29.988281 38.273438 -25.363281 38.273438 -17.789062 C 38.273438 -10.265625 32.273438 -5.589844 24.292969 -5.589844 Z M 24.292969 -5.589844 "/></g></g></g><g fill="#8294c4" fill-opacity="1"><g transform="translate(185.031404, 277.114711)"><g><path d="M 24.292969 0.710938 C 37 0.710938 46.300781 -6.25 46.300781 -17.789062 C 46.300781 -29.328125 37 -36.289062 24.292969 -36.289062 C 11.589844 -36.289062 2.289062 -29.328125 2.289062 -17.789062 C 2.289062 -6.25 11.589844 0.710938 24.292969 0.710938 Z M 24.292969 -5.589844 C 16.316406 -5.589844 10.316406 -10.265625 10.316406 -17.789062 C 10.316406 -25.363281 16.316406 -29.988281 24.292969 -29.988281 C 32.273438 -29.988281 38.273438 -25.363281 38.273438 -17.789062 C 38.273438 -10.265625 32.273438 -5.589844 24.292969 -5.589844 Z M 24.292969 -5.589844 "/></g></g></g><g fill="#8294c4" fill-opacity="1"><g transform="translate(234.637064, 277.114711)"><g><path d="M 4.117188 0 L 24.652344 0 C 37.152344 0 45.335938 -6.710938 45.335938 -17.789062 C 45.335938 -28.867188 37.152344 -35.578125 24.652344 -35.578125 L 4.117188 -35.578125 C 4.675781 -33.597656 5.082031 -30.496094 5.082031 -27.039062 L 5.082031 -8.539062 C 5.082031 -5.082031 4.726562 -1.980469 4.117188 0 Z M 12.960938 -6.964844 L 12.960938 -28.664062 L 24.089844 -28.664062 C 31.765625 -28.664062 37.203125 -24.601562 37.203125 -17.789062 C 37.203125 -10.976562 31.765625 -6.964844 24.089844 -6.964844 Z M 12.960938 -6.964844 "/></g></g></g><g fill="#8294c4" fill-opacity="1"><g transform="translate(15.143878, 330.079089)"><g><path d="M 4.117188 0 L 13.875 0 C 13.265625 -1.980469 12.960938 -4.980469 12.960938 -8.386719 L 13.011719 -19.210938 L 13.417969 -19.210938 C 14.6875 -12.25 20.6875 -9.097656 28.816406 -9.097656 C 37.253906 -9.097656 43.507812 -14.078125 43.507812 -22.566406 C 43.507812 -30.953125 36.441406 -35.578125 26.886719 -35.578125 L 4.117188 -35.578125 C 4.675781 -33.597656 5.082031 -30.496094 5.082031 -27.039062 L 5.082031 -8.539062 C 5.082031 -5.082031 4.726562 -1.980469 4.117188 0 Z M 25.820312 -15.550781 C 19.414062 -15.550781 13.0625 -19.160156 13.011719 -25.363281 L 13.011719 -28.816406 C 17.027344 -29.226562 21.09375 -29.277344 25.667969 -29.277344 C 31.96875 -29.277344 35.578125 -26.734375 35.578125 -22.566406 C 35.578125 -18.195312 31.003906 -15.550781 25.820312 -15.550781 Z M 25.820312 -15.550781 "/></g></g></g><g fill="#8294c4" fill-opacity="1"><g transform="translate(61.03928, 330.079089)"><g><path d="M -0.609375 0 L 9.351562 0 C 9.554688 -1.320312 10.417969 -3 11.640625 -5.589844 L 13.113281 -8.335938 L 33.289062 -8.335938 L 34.765625 -5.640625 C 36.238281 -3 36.847656 -1.371094 37.050781 0 L 47.015625 0 C 45.640625 -1.980469 43.660156 -5.234375 41.980469 -8.539062 L 32.222656 -27.089844 C 30.851562 -29.886719 29.9375 -33.289062 29.480469 -35.578125 L 17.027344 -35.578125 C 16.671875 -33.597656 15.808594 -30.394531 14.128906 -27.039062 L 4.472656 -8.539062 C 2.746094 -5.285156 0.761719 -1.980469 -0.609375 0 Z M 16.0625 -14.382812 L 20.738281 -23.429688 C 21.652344 -25.414062 22.261719 -27.039062 22.972656 -29.074219 L 23.429688 -29.074219 C 24.089844 -27.089844 24.753906 -25.363281 25.617188 -23.480469 L 30.34375 -14.382812 Z M 16.0625 -14.382812 "/></g></g></g><g fill="#8294c4" fill-opacity="1"><g transform="translate(108.459445, 330.079089)"><g><path d="M 40.863281 0.761719 C 43.457031 0.761719 45.894531 -0.304688 47.066406 -1.878906 L 46.707031 -10.671875 C 45.792969 -8.488281 44.574219 -7.117188 41.828125 -7.117188 C 36.238281 -7.117188 37.457031 -16.113281 26.785156 -16.113281 L 26.378906 -16.113281 L 26.378906 -16.519531 L 29.480469 -16.519531 C 37.660156 -16.519531 43.203125 -20.535156 43.203125 -26.277344 C 43.203125 -32.273438 37.304688 -35.578125 28.765625 -35.578125 L 4.167969 -35.578125 C 4.726562 -33.597656 5.082031 -30.496094 5.082031 -27.039062 L 5.082031 -8.539062 C 5.082031 -5.082031 4.726562 -2.03125 4.167969 0 L 13.925781 0 C 13.316406 -2.03125 13.011719 -4.777344 13.011719 -8.183594 L 13.011719 -13.46875 C 14.179688 -13.824219 18.195312 -13.925781 19.667969 -13.925781 C 34.257812 -13.925781 27.597656 0.761719 40.863281 0.761719 Z M 13.011719 -19.566406 L 13.011719 -28.714844 L 27.953125 -28.714844 C 32.324219 -28.714844 35.273438 -26.988281 35.273438 -24.140625 C 35.273438 -21.195312 32.273438 -19.566406 27.597656 -19.566406 Z M 13.011719 -19.566406 "/></g></g></g><g fill="#8294c4" fill-opacity="1"><g transform="translate(157.099415, 330.079089)"><g><path d="M -0.609375 0 L 9.351562 0 C 9.554688 -1.320312 10.417969 -3 11.640625 -5.589844 L 13.113281 -8.335938 L 33.289062 -8.335938 L 34.765625 -5.640625 C 36.238281 -3 36.847656 -1.371094 37.050781 0 L 47.015625 0 C 45.640625 -1.980469 43.660156 -5.234375 41.980469 -8.539062 L 32.222656 -27.089844 C 30.851562 -29.886719 29.9375 -33.289062 29.480469 -35.578125 L 17.027344 -35.578125 C 16.671875 -33.597656 15.808594 -30.394531 14.128906 -27.039062 L 4.472656 -8.539062 C 2.746094 -5.285156 0.761719 -1.980469 -0.609375 0 Z M 16.0625 -14.382812 L 20.738281 -23.429688 C 21.652344 -25.414062 22.261719 -27.039062 22.972656 -29.074219 L 23.429688 -29.074219 C 24.089844 -27.089844 24.753906 -25.363281 25.617188 -23.480469 L 30.34375 -14.382812 Z M 16.0625 -14.382812 "/></g></g></g><g fill="#8294c4" fill-opacity="1"><g transform="translate(204.51958, 330.079089)"><g><path d="M 4.117188 0 L 24.652344 0 C 37.152344 0 45.335938 -6.710938 45.335938 -17.789062 C 45.335938 -28.867188 37.152344 -35.578125 24.652344 -35.578125 L 4.117188 -35.578125 C 4.675781 -33.597656 5.082031 -30.496094 5.082031 -27.039062 L 5.082031 -8.539062 C 5.082031 -5.082031 4.726562 -1.980469 4.117188 0 Z M 12.960938 -6.964844 L 12.960938 -28.664062 L 24.089844 -28.664062 C 31.765625 -28.664062 37.203125 -24.601562 37.203125 -17.789062 C 37.203125 -10.976562 31.765625 -6.964844 24.089844 -6.964844 Z M 12.960938 -6.964844 "/></g></g></g><g fill="#8294c4" fill-opacity="1"><g transform="translate(253.159551, 330.079089)"><g><path d="M 4.117188 0 L 13.875 0 C 13.316406 -1.980469 12.960938 -5.082031 12.960938 -8.539062 L 12.960938 -27.039062 C 12.960938 -30.496094 13.316406 -33.597656 13.875 -35.578125 L 4.117188 -35.578125 C 4.675781 -33.597656 5.03125 -30.496094 5.03125 -27.039062 L 5.03125 -8.539062 C 5.03125 -5.082031 4.726562 -1.980469 4.117188 0 Z M 4.117188 0 "/></g></g></g><g fill="#8294c4" fill-opacity="1"><g transform="translate(272.219211, 330.079089)"><g><path d="M 22.058594 0.710938 C 33.648438 0.710938 41.015625 -3.40625 41.015625 -10.214844 C 41.015625 -24.753906 10.773438 -17.992188 10.773438 -25.71875 C 10.773438 -28.765625 15.859375 -29.582031 21.601562 -29.582031 C 27.597656 -29.582031 33.699219 -28.105469 37.457031 -25.921875 L 37.457031 -33.445312 C 33.445312 -35.121094 27.089844 -36.289062 21.296875 -36.289062 C 10.976562 -36.289062 2.59375 -32.679688 2.59375 -25.820312 C 2.59375 -11.128906 32.78125 -17.585938 32.78125 -10.164062 C 32.78125 -7.015625 28.359375 -5.945312 21.90625 -5.945312 C 14.585938 -5.945312 7.574219 -7.574219 2.238281 -10.976562 L 1.878906 -2.898438 C 7.421875 -0.710938 15.910156 0.710938 22.058594 0.710938 Z M 22.058594 0.710938 "/></g></g></g><g fill="#8294c4" fill-opacity="1"><g transform="translate(316.234103, 330.079089)"><g><path d="M 4.117188 0 L 39.949219 0 L 41.421875 -8.082031 C 39.949219 -7.269531 37.660156 -6.761719 33.648438 -6.761719 L 12.960938 -6.761719 L 12.960938 -14.535156 L 29.328125 -14.535156 C 31.765625 -14.535156 33.445312 -14.433594 34.664062 -14.230469 L 34.664062 -21.449219 C 33.445312 -21.246094 31.765625 -21.144531 29.328125 -21.144531 L 12.960938 -21.144531 L 12.960938 -28.816406 L 33.289062 -28.816406 C 36.796875 -28.816406 39.035156 -28.460938 40.203125 -27.902344 L 38.933594 -35.578125 L 4.117188 -35.578125 C 4.675781 -33.597656 5.082031 -30.496094 5.082031 -27.039062 L 5.082031 -8.539062 C 5.082031 -5.082031 4.726562 -1.980469 4.117188 0 Z M 4.117188 0 "/></g></g></g></svg>