<svg xmlns="http://www.w3.org/2000/svg" xmlns:xlink="http://www.w3.org/1999/xlink" width="500" zoomAndPan="magnify" viewBox="0 0 375 374.999991" height="500" preserveAspectRatio="xMidYMid meet" version="1.0"><defs><clipPath id="f3eda8c75c"><path d="M 100 95 L 256 95 L 256 237 L 100 237 Z M 100 95 " clip-rule="nonzero"/></clipPath><clipPath id="9c9d9fd3ec"><path d="M -0.996094 107.863281 L 364.40625 86.96875 L 374.726562 267.421875 L 9.324219 288.316406 Z M -0.996094 107.863281 " clip-rule="nonzero"/></clipPath><clipPath id="37fab2982e"><path d="M 364.6875 86.949219 L -0.714844 107.847656 L 9.601562 288.300781 L 375.007812 267.40625 Z M 364.6875 86.949219 " clip-rule="nonzero"/></clipPath><clipPath id="229c8a39a0"><path d="M 8 120 L 375 120 L 375 274 L 8 274 Z M 8 120 " clip-rule="nonzero"/></clipPath><clipPath id="eab10fb927"><path d="M -0.996094 107.863281 L 364.40625 86.96875 L 374.726562 267.421875 L 9.324219 288.316406 Z M -0.996094 107.863281 " clip-rule="nonzero"/></clipPath><clipPath id="e371837cef"><path d="M 364.6875 86.949219 L -0.714844 107.847656 L 9.601562 288.300781 L 375.007812 267.40625 Z M 364.6875 86.949219 " clip-rule="nonzero"/></clipPath></defs><g clip-path="url(#f3eda8c75c)"><g clip-path="url(#9c9d9fd3ec)"><g clip-path="url(#37fab2982e)"><path fill="#f6ece1" d="M 136.855469 100.097656 C 158.199219 98.875 176.660156 117.738281 178.058594 142.207031 C 176.660156 117.738281 192.847656 96.894531 214.191406 95.675781 C 235.535156 94.453125 253.8125 110.167969 255.394531 137.785156 C 257.101562 167.675781 223.019531 212.84375 183.460938 236.714844 C 141.445312 217.507812 102.433594 176.519531 100.722656 146.628906 C 99.21875 119.007812 115.585938 101.3125 136.855469 100.097656 Z M 136.855469 100.097656 " fill-opacity="1" fill-rule="nonzero"/></g></g></g><g clip-path="url(#229c8a39a0)"><g clip-path="url(#eab10fb927)"><g clip-path="url(#e371837cef)"><path fill="#db8077" d="M 9.292969 255.933594 C 10.25 254.703125 11.667969 253.886719 13.273438 253.722656 C 14.949219 253.554688 16.445312 254.054688 17.671875 255.015625 L 49.652344 232.019531 C 48.847656 226.917969 48.335938 220.554688 50.421875 217.273438 C 53.589844 212.390625 57.789062 212.738281 62.65625 213.195312 C 65.824219 213.453125 69.4375 213.835938 73.945312 213.136719 C 81.507812 211.96875 84.300781 203.136719 85.289062 196.023438 C 85.902344 191.359375 90.664062 172.046875 96.796875 167.730469 L 96.867188 167.652344 C 98.910156 164.960938 100.6875 162.65625 105.496094 160.835938 C 112.390625 154.414062 123.652344 150.023438 130.226562 149.574219 C 130.226562 149.574219 130.296875 149.570312 130.296875 149.570312 C 131.03125 149.527344 131.769531 149.632812 132.507812 149.738281 C 132.578125 149.660156 132.714844 149.503906 132.859375 149.496094 C 141.996094 143.828125 154.335938 142.902344 161.855469 144.824219 C 163.640625 145.3125 165.890625 146.136719 167.289062 147.527344 L 168.695312 146.492188 C 168.710938 145.460938 168.878906 144.570312 169.054688 143.753906 L 160.644531 139.085938 C 159.964844 138.6875 159.695312 137.820312 160.09375 137.136719 C 160.496094 136.449219 161.359375 136.179688 162.042969 136.582031 L 170 141.050781 C 170.980469 139.011719 172.390625 137.976562 173.386719 137.476562 C 175.667969 136.316406 178.320312 136.535156 180.605469 138.019531 L 205.191406 120.371094 C 205.824219 119.894531 206.785156 120.058594 207.1875 120.699219 C 207.664062 121.332031 207.5 122.296875 206.863281 122.699219 L 183.058594 139.863281 C 184.953125 142.253906 185.882812 145.65625 185.65625 149.417969 L 190.28125 152.019531 C 191.726562 150.394531 193.519531 149.703125 195.15625 150.125 C 197.464844 150.726562 198.929688 153.214844 199.296875 157.089844 L 203.007812 159.15625 C 204.3125 157.613281 206.378906 156.539062 208.097656 155.851562 C 215.34375 153.011719 227.785156 152.59375 237.433594 157.1875 C 237.585938 157.253906 237.664062 157.320312 237.8125 157.386719 C 238.53125 157.125 239.257812 157.011719 239.988281 156.96875 C 239.988281 156.96875 240.0625 156.964844 240.0625 156.964844 C 246.644531 156.660156 258.335938 159.742188 265.914062 165.335938 C 270.902344 166.59375 272.925781 168.683594 275.265625 171.121094 L 275.34375 171.191406 C 282.003906 174.777344 288.867188 193.496094 290.003906 197.988281 C 291.796875 205.015625 295.578125 213.398438 303.222656 213.695312 C 307.777344 213.875 311.332031 213.160156 314.445312 212.464844 C 319.226562 211.457031 323.429688 210.554688 327.0625 215.125 C 329.507812 218.144531 329.800781 224.523438 329.507812 229.6875 L 363.972656 248.882812 C 365.085938 247.789062 366.511719 247.121094 368.199219 247.097656 C 369.8125 247.078125 371.242188 247.734375 372.40625 248.84375 C 373.496094 249.957031 374.09375 251.464844 374.109375 253.007812 C 374.125 254.550781 373.476562 256.058594 372.371094 257.222656 C 371.328125 258.238281 369.96875 258.832031 368.582031 258.910156 C 368.433594 258.917969 368.359375 258.921875 368.214844 258.929688 C 366.601562 258.949219 365.171875 258.296875 364.007812 257.1875 C 362.917969 256.074219 362.320312 254.5625 362.304688 253.019531 C 362.269531 252.433594 362.386719 251.914062 362.503906 251.394531 L 329.328125 232.929688 C 328.523438 241.945312 325.921875 252.898438 322.839844 256.675781 C 321.535156 258.21875 320.179688 258.882812 318.714844 258.96875 C 315.9375 259.128906 312.675781 257.183594 308.800781 254.832031 C 302.042969 250.808594 291.867188 244.699219 275.492188 243.066406 C 260.296875 241.507812 252.226562 236.308594 241.160156 224.890625 C 240.964844 229.164062 240.46875 233.308594 239.941406 236.9375 C 239.328125 241.605469 238.824219 245.601562 239.191406 248.152344 C 239.671875 251.433594 242.085938 253.867188 245.109375 255.460938 C 245.394531 252.796875 246.578125 250.378906 248.519531 248.429688 C 252.207031 244.910156 256.265625 244.089844 259.472656 246.332031 C 262.527344 248.4375 263.582031 252.785156 262.027344 256.402344 C 260.660156 259.421875 256.273438 260.921875 250.804688 260.207031 C 249.992188 260.105469 249.25 259.925781 248.433594 259.753906 C 249.746094 264.75 253.984375 269.578125 258.472656 271.160156 C 259.222656 271.410156 259.636719 272.269531 259.386719 273.019531 C 259.199219 273.617188 258.632812 273.945312 258.121094 273.972656 C 257.972656 273.980469 257.753906 273.992188 257.53125 273.933594 C 251.917969 271.976562 246.890625 266.089844 245.511719 259.921875 C 245.410156 259.484375 245.316406 259.121094 245.296875 258.757812 C 240.863281 256.878906 237.148438 253.488281 236.433594 248.679688 C 235.972656 245.765625 236.539062 241.542969 237.214844 236.65625 C 237.835938 232.136719 238.496094 227.027344 238.503906 222.027344 C 238.269531 221.820312 238.109375 221.535156 237.875 221.328125 C 232.324219 215.25 226.113281 211.859375 221.1875 209.050781 C 215.582031 205.917969 211.113281 203.453125 212.390625 198.824219 C 212.941406 196.957031 214.1875 195.636719 216.054688 194.941406 C 216.484375 194.769531 216.992188 194.664062 217.5 194.5625 C 204.679688 187.136719 197.851562 175.402344 196.6875 158.929688 L 191.160156 155.863281 C 189.371094 157.953125 187.226562 158.882812 185.429688 158.25 C 183.933594 157.75 182.371094 156.074219 182.675781 151.132812 L 174.117188 146.402344 L 171.863281 148 C 171.46875 160.371094 165.53125 162.988281 161.960938 163.339844 C 158.898438 163.664062 155.839844 162.734375 153.476562 161.179688 L 149.460938 164.054688 C 151.386719 166.960938 152.941406 169.808594 153.804688 172.039062 C 155.101562 175.492188 155.019531 177.921875 153.472656 179.042969 C 152.632812 179.75 151.695312 180.023438 150.742188 180.078125 C 146.871094 180.300781 142.644531 175.691406 139.199219 171.847656 C 139.117188 171.703125 138.96875 171.636719 138.886719 171.496094 L 133.953125 175.011719 C 135.640625 181.457031 136.160156 189.21875 135.886719 192.175781 C 135.84375 192.691406 135.734375 193.359375 135.625 193.953125 C 143.488281 187.84375 152.957031 182.894531 158.753906 184.25 C 160.6875 184.730469 162.148438 185.894531 162.839844 187.691406 C 164.632812 192.148438 160.550781 195.101562 155.265625 198.855469 C 150.609375 202.136719 144.910156 206.285156 140.082031 212.957031 C 128.863281 228.371094 121.492188 235.40625 105.050781 238.992188 C 88.972656 242.484375 79.558594 249.710938 73.304688 254.480469 C 69.648438 257.261719 66.699219 259.5625 63.921875 259.71875 C 62.460938 259.804688 60.964844 259.300781 59.566406 257.910156 C 56.074219 254.582031 52.242188 243.996094 50.414062 235.0625 L 19.558594 257.1875 C 19.734375 257.691406 19.910156 258.195312 19.941406 258.78125 C 20.105469 260.386719 19.679688 261.882812 18.722656 263.113281 C 17.765625 264.34375 16.347656 265.160156 14.742188 265.324219 C 14.597656 265.332031 14.523438 265.339844 14.378906 265.347656 C 12.914062 265.429688 11.496094 264.996094 10.417969 264.101562 C 9.191406 263.144531 8.375 261.71875 8.210938 260.113281 C 7.914062 258.734375 8.339844 257.238281 9.292969 255.933594 Z M 251.300781 257.3125 C 255.292969 257.890625 258.761719 256.957031 259.542969 255.222656 C 260.582031 252.882812 259.910156 250.128906 258 248.769531 C 257.234375 248.226562 256.414062 247.976562 255.535156 248.027344 C 254.074219 248.113281 252.4375 248.941406 250.765625 250.507812 C 248.820312 252.382812 248.210938 254.546875 248.175781 256.535156 C 249.152344 256.917969 250.191406 257.152344 251.300781 257.3125 Z M 62.457031 216.144531 C 57.371094 215.699219 55.019531 215.613281 52.933594 218.894531 C 51.792969 220.722656 51.585938 224.777344 52.332031 230.175781 L 71.496094 216.4375 C 67.984375 216.636719 64.964844 216.367188 62.457031 216.144531 Z M 88.316406 196.4375 C 87.738281 200.441406 86.894531 203.574219 85.792969 206.136719 L 106.574219 191.203125 C 105.742188 188.238281 105.179688 186.066406 105.890625 184.40625 C 106.730469 182.449219 108.789062 181.230469 111.414062 181.003906 C 114.414062 180.832031 117.195312 182.070312 118.636719 184.195312 C 118.636719 184.195312 118.636719 184.195312 118.640625 184.265625 C 118.640625 184.265625 118.640625 184.265625 118.648438 184.339844 C 118.648438 184.339844 118.648438 184.339844 118.652344 184.414062 C 118.65625 184.488281 118.726562 184.484375 118.730469 184.554688 C 119.226562 185.484375 119.5 186.421875 119.5625 187.523438 C 119.839844 198.824219 122.148438 199.429688 122.59375 199.476562 C 122.957031 199.457031 123.378906 199.136719 123.789062 198.597656 C 125.703125 196.136719 127.359375 189.207031 125.070312 181.253906 C 124.894531 180.75 124.71875 180.246094 124.46875 179.742188 C 122.480469 175.742188 117.292969 172.214844 110.585938 170.320312 C 105.515625 168.847656 100.59375 168.761719 98.613281 169.976562 C 94.15625 172.878906 89.183594 189.773438 88.316406 196.4375 Z M 115.308594 184.972656 C 114.238281 184.226562 112.832031 183.9375 111.585938 184.007812 C 110.050781 184.097656 108.917969 184.75 108.527344 185.652344 C 108.269531 186.257812 108.578125 187.78125 109.039062 189.445312 Z M 132.945312 191.976562 C 133.445312 186.65625 131.484375 172.875 128.191406 169.167969 C 128.035156 168.957031 127.878906 168.816406 127.722656 168.679688 C 123.578125 165.390625 108.976562 162.695312 106.890625 163.402344 C 104.59375 164.269531 103.101562 165.164062 101.992188 166.257812 C 105.0625 166.082031 108.617188 166.6875 111.527344 167.546875 C 118.984375 169.695312 124.863281 173.769531 127.183594 178.488281 C 127.515625 179.128906 127.777344 179.847656 127.960938 180.5 C 130.351562 188.960938 128.898438 196.910156 126.167969 200.449219 C 125.550781 201.21875 124.917969 201.695312 124.351562 202.023438 C 125.339844 205.199219 126.480469 205.941406 126.855469 206.066406 C 127.078125 206.128906 127.453125 206.253906 127.949219 205.933594 C 129.363281 205.042969 132.457031 197.589844 132.945312 191.976562 Z M 129.34375 166.234375 C 129.976562 165.757812 130.609375 165.28125 131.246094 164.878906 C 130.28125 164.636719 129.339844 164.839844 128.128906 165.496094 C 128.582031 165.691406 128.960938 165.964844 129.34375 166.234375 Z M 161.277344 147.578125 C 154.800781 145.890625 144.351562 146.5625 136.097656 150.929688 C 138.742188 152.320312 141.363281 154.523438 143.855469 157.101562 C 145.847656 156.03125 148.152344 155.3125 150.617188 154.800781 C 150.617188 154.800781 150.617188 154.800781 150.691406 154.796875 C 150.691406 154.796875 150.765625 154.792969 150.765625 154.792969 C 152.722656 154.386719 154.6875 154.128906 156.578125 153.875 C 157.523438 153.746094 158.46875 153.617188 159.34375 153.496094 C 161.523438 153.148438 163.917969 152.71875 165.335938 151.828125 C 165.335938 151.828125 165.335938 151.828125 165.40625 151.824219 C 166.183594 151.265625 166.160156 150.898438 166.222656 150.675781 C 166.214844 150.53125 166.203125 150.308594 166.042969 150.097656 C 165.402344 149.179688 163.664062 148.25 161.277344 147.578125 Z M 153.839844 157.265625 C 153.621094 157.277344 153.476562 157.359375 153.257812 157.371094 C 153.335938 157.441406 153.339844 157.511719 153.417969 157.582031 Z M 174.917969 139.890625 C 173.992188 140.382812 173.308594 141.230469 172.78125 142.289062 L 173.84375 142.890625 L 178.210938 139.773438 C 177.085938 139.324219 175.988281 139.386719 174.917969 139.890625 Z M 194.445312 153.03125 C 193.996094 152.910156 193.492188 153.085938 192.933594 153.558594 L 196.039062 155.292969 C 195.667969 153.917969 195.035156 153.144531 194.445312 153.03125 Z M 209.285156 158.652344 C 206.988281 159.515625 205.371094 160.710938 204.984375 161.6875 C 204.925781 161.914062 204.859375 162.0625 204.875 162.285156 C 204.886719 162.503906 204.90625 162.871094 205.8125 163.332031 C 205.8125 163.332031 205.8125 163.332031 205.886719 163.328125 C 207.320312 164.054688 209.75 164.210938 212.027344 164.300781 C 212.910156 164.324219 213.863281 164.34375 214.820312 164.359375 C 219.152344 164.480469 223.996094 164.570312 227.824219 166.117188 C 229.9375 163.277344 232.359375 160.785156 234.832031 159.101562 C 225.984375 155.710938 215.523438 156.164062 209.285156 158.652344 Z M 225.914062 168.578125 C 223.519531 167.757812 220.644531 167.484375 217.703125 167.355469 L 224.371094 171.089844 C 224.910156 170.253906 225.375 169.417969 225.914062 168.578125 Z M 240.304688 159.890625 C 235.84375 160.144531 230.125 166.574219 226.132812 173.710938 C 225.070312 175.609375 224.148438 177.5 223.449219 179.375 C 221.65625 183.890625 221.785156 186.160156 222.167969 186.433594 C 224.828125 188.042969 228.628906 182.753906 231.683594 178.464844 C 232.164062 177.847656 232.636719 177.160156 233.042969 176.550781 L 233.660156 175.777344 C 234.816406 174.242188 235.839844 172.859375 236.945312 171.695312 C 237.082031 171.539062 237.148438 171.390625 237.289062 171.308594 C 239.796875 168.960938 242.605469 168.0625 247.152344 170.671875 C 249.855469 169.191406 252.945312 168.0625 254.527344 167.53125 C 255.390625 167.257812 258.339844 166.210938 261.164062 165.605469 C 253.96875 161.609375 244.914062 159.699219 240.304688 159.890625 Z M 246.136719 187.488281 C 246.242188 186.820312 246.421875 186.074219 246.675781 185.398438 C 248.445312 180.445312 253.824219 175.726562 260.984375 172.746094 C 263.851562 171.554688 267.3125 170.546875 270.308594 170.375 C 269.007812 169.421875 267.5 168.699219 265.121094 168.101562 C 262.960938 167.5625 248.695312 171.980469 245.023438 175.71875 C 244.882812 175.871094 244.746094 176.027344 244.613281 176.253906 C 241.769531 180.386719 241.390625 194.300781 242.492188 199.457031 C 243.683594 204.898438 247.605469 211.953125 249.042969 212.679688 C 249.644531 212.9375 249.933594 212.847656 250.144531 212.6875 C 250.5 212.519531 251.550781 211.652344 252.167969 208.382812 C 251.566406 208.125 250.886719 207.722656 250.1875 207.027344 C 247.078125 203.96875 244.730469 196.242188 246.136719 187.488281 Z M 243.132812 173.472656 C 243.480469 173.160156 243.832031 172.84375 244.253906 172.527344 C 242.976562 172.011719 242.023438 171.992188 241.085938 172.265625 C 241.765625 172.667969 242.523438 173.066406 243.132812 173.472656 Z M 241.4375 175.847656 C 240.597656 175.308594 239.46875 174.785156 238.488281 174.328125 C 237.730469 175.179688 236.984375 176.25 236.027344 177.480469 L 240.117188 179.746094 C 240.476562 178.328125 240.914062 176.980469 241.4375 175.847656 Z M 287.335938 198.800781 C 285.644531 192.285156 278.847656 176.0625 273.949219 173.769531 C 271.839844 172.785156 266.964844 173.433594 262.09375 175.476562 C 255.644531 178.125 250.894531 182.21875 249.375 186.417969 C 249.183594 186.945312 249.066406 187.464844 248.949219 187.988281 C 247.582031 196.152344 250.019531 202.847656 252.199219 205.074219 C 252.667969 205.5625 253.199219 205.898438 253.488281 205.808594 C 253.921875 205.710938 256.222656 204.84375 255.136719 193.585938 C 255 192.492188 255.160156 191.453125 255.625 190.546875 C 255.617188 190.472656 255.691406 190.46875 255.6875 190.394531 C 255.6875 190.394531 255.6875 190.394531 255.683594 190.320312 C 255.683594 190.320312 255.683594 190.320312 255.679688 190.25 C 255.679688 190.25 255.679688 190.25 255.675781 190.175781 C 256.789062 187.832031 259.484375 186.28125 262.488281 186.183594 C 265.117188 186.035156 267.304688 187.085938 268.363281 188.933594 C 269.257812 190.429688 268.949219 192.722656 268.460938 195.765625 L 290.808594 208.230469 C 289.640625 205.800781 288.367188 202.710938 287.335938 198.800781 Z M 265.953125 194.21875 C 266.222656 192.511719 266.355469 190.960938 266.027344 190.390625 C 265.539062 189.539062 264.261719 189.023438 262.800781 189.105469 C 261.558594 189.175781 260.191406 189.625 259.214844 190.488281 Z M 325.046875 217.078125 C 322.601562 214.058594 320.277344 214.410156 315.273438 215.433594 C 312.808594 215.941406 309.835938 216.550781 306.324219 216.679688 L 326.925781 228.144531 C 327.058594 222.769531 326.390625 218.765625 325.046875 217.078125 Z M 366.320312 255.289062 C 366.867188 255.847656 367.617188 256.171875 368.425781 256.199219 C 369.234375 256.226562 369.949219 255.890625 370.578125 255.339844 C 371.203125 254.789062 371.453125 253.96875 371.40625 253.164062 C 371.433594 252.351562 371.097656 251.636719 370.546875 251.007812 C 370.003906 250.449219 369.25 250.125 368.441406 250.097656 C 368.371094 250.101562 368.296875 250.105469 368.296875 250.105469 C 366.761719 250.195312 365.445312 251.519531 365.464844 253.132812 C 365.4375 253.945312 365.699219 254.664062 366.320312 255.289062 Z M 275.914062 240.175781 C 292.953125 241.917969 303.507812 248.226562 310.421875 252.386719 C 316.570312 256.078125 318.761719 257.203125 320.757812 254.882812 C 323.296875 251.871094 325.984375 241.132812 326.675781 231.464844 L 267.976562 198.804688 C 266.886719 205.410156 266.011719 214.5 272.195312 222.601562 C 272.671875 223.234375 272.578125 224.121094 271.949219 224.671875 C 271.316406 225.148438 270.429688 225.054688 269.878906 224.421875 C 262.664062 214.914062 264.050781 204.542969 265.253906 197.34375 L 257.980469 193.277344 C 257.980469 193.277344 257.984375 193.351562 257.984375 193.351562 C 258.53125 199.050781 258.742188 206.609375 254.957031 208.371094 C 254.355469 212.007812 253.171875 214.351562 251.394531 215.335938 C 250.898438 215.660156 250.320312 215.765625 249.734375 215.800781 C 249.074219 215.835938 248.332031 215.660156 247.652344 215.332031 C 245.695312 214.414062 243.339844 210.433594 241.640625 206.339844 C 241.640625 206.339844 241.566406 206.34375 241.566406 206.34375 C 239.808594 205.121094 237.988281 204.050781 236.246094 203.046875 C 239.902344 208.054688 241.144531 214.378906 241.292969 220.765625 C 252.53125 232.691406 260.058594 238.582031 275.914062 240.175781 Z M 215.144531 199.550781 C 214.46875 201.867188 217.203125 203.472656 222.574219 206.402344 C 226.96875 208.867188 232.878906 212.132812 238.316406 217.480469 C 237.550781 209.21875 234.335938 201.757812 225.109375 198.097656 C 221.75 197.113281 218.878906 196.910156 217.082031 197.527344 C 216.011719 198.03125 215.382812 198.578125 215.144531 199.550781 Z M 225.980469 195.402344 C 230.527344 196.683594 235.507812 199.121094 240.0625 201.871094 C 239.878906 201.222656 239.699219 200.644531 239.597656 200.136719 C 238.992188 197.230469 238.621094 189.460938 239.5625 182.863281 L 234.261719 179.933594 C 234.199219 180.085938 234.054688 180.167969 233.992188 180.316406 C 230.933594 184.535156 227.335938 189.589844 223.460938 189.8125 C 222.511719 189.867188 221.617188 189.625 220.632812 189.09375 C 218.960938 188.085938 218.609375 185.753906 219.503906 182.175781 C 220.101562 179.789062 221.320312 176.777344 222.910156 173.746094 L 211.394531 167.351562 C 208.898438 167.273438 206.386719 166.976562 204.507812 166.125 C 204.507812 166.125 204.433594 166.132812 204.429688 166.058594 C 202.464844 165.066406 201.949219 163.699219 201.890625 162.675781 C 201.875 162.457031 201.863281 162.234375 201.851562 162.015625 L 199.503906 160.753906 C 200.351562 169.15625 203.773438 186.675781 225.980469 195.402344 Z M 186.296875 155.480469 C 186.671875 155.605469 187.53125 155.265625 188.429688 154.332031 L 185.402344 152.667969 C 185.507812 154.496094 185.921875 155.355469 186.296875 155.480469 Z M 182.785156 147.890625 C 182.710938 145.324219 182 143.160156 180.664062 141.617188 L 176.648438 144.492188 Z M 161.574219 160.421875 C 164.921875 160.011719 167.195312 157.457031 168.261719 152.984375 C 167.921875 153.445312 167.503906 153.835938 166.867188 154.242188 C 166.867188 154.242188 166.792969 154.246094 166.796875 154.316406 C 165.097656 155.371094 162.5625 155.957031 160.089844 156.320312 L 155.933594 159.277344 C 157.597656 160.136719 159.609375 160.683594 161.574219 160.421875 Z M 151.09375 159.257812 C 150.703125 158.839844 150.382812 158.417969 150.140625 157.988281 C 148.621094 158.371094 147.109375 158.824219 145.894531 159.410156 C 146.527344 160.179688 147.15625 160.953125 147.714844 161.730469 Z M 151.65625 176.792969 C 151.925781 176.410156 151.796875 174.140625 149.578125 169.929688 C 145.054688 161.367188 136.167969 152.175781 130.683594 152.488281 C 130.683594 152.488281 130.683594 152.488281 130.613281 152.492188 C 126.011719 152.828125 117.230469 155.757812 110.542969 160.621094 C 113.417969 160.898438 116.464844 161.605469 117.285156 161.78125 C 118.917969 162.128906 122.117188 162.972656 124.96875 164.058594 C 129.1875 160.953125 132.15625 161.519531 134.839844 163.570312 C 134.988281 163.632812 135.144531 163.773438 135.226562 163.914062 C 136.457031 164.945312 137.703125 166.199219 138.957031 167.597656 L 139.65625 168.292969 C 140.199219 168.847656 140.671875 169.410156 141.222656 170.039062 C 144.8125 173.804688 149.195312 178.625 151.65625 176.792969 Z M 136.863281 169.480469 C 135.769531 168.292969 134.90625 167.3125 134.0625 166.628906 C 133.136719 167.121094 132.078125 167.84375 131.304688 168.476562 C 131.953125 169.539062 132.539062 170.832031 133.0625 172.269531 Z M 61.429688 255.894531 C 63.679688 258.042969 65.796875 256.597656 71.414062 252.234375 C 77.878906 247.308594 87.574219 239.84375 104.304688 236.167969 C 120.53125 232.667969 127.234375 225.523438 137.640625 211.257812 C 142.734375 204.203125 148.9375 199.808594 153.515625 196.53125 C 158.449219 193.015625 160.976562 191.035156 160.121094 188.878906 C 159.773438 187.941406 159.085938 187.464844 158.042969 187.160156 C 153.429688 186.027344 143.585938 190.851562 134.570312 198.644531 C 134.570312 198.644531 134.5 198.648438 134.5 198.648438 C 133.273438 202.90625 131.316406 207.136719 129.546875 208.265625 C 128.910156 208.667969 128.191406 208.929688 127.535156 208.96875 C 126.949219 209.003906 126.355469 208.890625 125.832031 208.699219 C 123.957031 207.925781 122.507812 205.726562 121.5 202.183594 C 117.539062 200.867188 116.886719 193.335938 116.78125 187.605469 C 116.78125 187.605469 116.777344 187.535156 116.777344 187.535156 L 110.015625 192.40625 C 112.027344 199.417969 114.660156 209.558594 108.503906 219.832031 C 108.101562 220.515625 107.234375 220.714844 106.476562 220.316406 C 105.792969 219.914062 105.597656 219.042969 105.996094 218.285156 C 111.214844 209.535156 109.308594 200.601562 107.476562 194.167969 L 52.878906 233.304688 C 54.671875 242.828125 58.5625 253.191406 61.429688 255.894531 Z M 12.0625 262.023438 C 12.675781 262.503906 13.496094 262.75 14.296875 262.632812 C 15.09375 262.511719 15.804688 262.105469 16.285156 261.488281 C 16.761719 260.875 17.007812 260.050781 16.890625 259.25 C 16.722656 257.640625 15.335938 256.472656 13.730469 256.5625 C 13.65625 256.566406 13.582031 256.570312 13.582031 256.570312 C 12.78125 256.691406 12.074219 257.097656 11.59375 257.714844 C 11.117188 258.328125 10.871094 259.152344 10.988281 259.953125 C 11.035156 260.761719 11.441406 261.472656 12.0625 262.023438 Z M 12.0625 262.023438 " fill-opacity="1" fill-rule="nonzero"/></g></g></g></svg>