<svg xmlns="http://www.w3.org/2000/svg" xmlns:xlink="http://www.w3.org/1999/xlink" width="160" zoomAndPan="magnify" viewBox="0 0 120 60" height="80" preserveAspectRatio="xMidYMid meet" version="1.0"><defs><g/><clipPath id="6db4aad378"><path d="M 20 13 L 49 13 L 49 39 L 20 39 Z M 20 13 " clip-rule="nonzero"/></clipPath><clipPath id="c0c1b20229"><path d="M 1.597656 15.289062 L 68.984375 11.4375 L 70.871094 44.382812 L 3.480469 48.234375 Z M 1.597656 15.289062 " clip-rule="nonzero"/></clipPath><clipPath id="ab6aa8f64d"><path d="M 69.136719 11.425781 L 1.75 15.28125 L 3.632812 48.226562 L 71.023438 44.375 Z M 69.136719 11.425781 " clip-rule="nonzero"/></clipPath><clipPath id="8c203ff488"><path d="M 3 17 L 71 17 L 71 46 L 3 46 Z M 3 17 " clip-rule="nonzero"/></clipPath><clipPath id="d8f330e50c"><path d="M 1.597656 15.289062 L 68.984375 11.4375 L 70.871094 44.382812 L 3.480469 48.234375 Z M 1.597656 15.289062 " clip-rule="nonzero"/></clipPath><clipPath id="4c601efe18"><path d="M 69.136719 11.425781 L 1.75 15.28125 L 3.632812 48.226562 L 71.023438 44.375 Z M 69.136719 11.425781 " clip-rule="nonzero"/></clipPath></defs><g clip-path="url(#6db4aad378)"><g clip-path="url(#c0c1b20229)"><g clip-path="url(#ab6aa8f64d)"><path fill="#f6ece1" d="M 27.121094 13.847656 C 31.054688 13.621094 34.457031 17.066406 34.714844 21.535156 C 34.457031 17.066406 37.445312 13.257812 41.382812 13.03125 C 45.320312 12.808594 48.6875 15.675781 48.976562 20.71875 C 49.289062 26.175781 42.996094 34.429688 35.699219 38.792969 C 27.953125 35.289062 20.761719 27.808594 20.453125 22.351562 C 20.175781 17.304688 23.195312 14.074219 27.121094 13.847656 Z M 27.121094 13.847656 " fill-opacity="1" fill-rule="nonzero"/></g></g></g><g clip-path="url(#8c203ff488)"><g clip-path="url(#d8f330e50c)"><g clip-path="url(#4c601efe18)"><path fill="#db8077" d="M 3.578125 42.320312 C 3.753906 42.09375 4.015625 41.945312 4.3125 41.914062 C 4.621094 41.882812 4.898438 41.976562 5.125 42.152344 L 11.023438 37.949219 C 10.875 37.015625 10.78125 35.855469 11.167969 35.253906 C 11.753906 34.363281 12.527344 34.425781 13.425781 34.507812 C 14.007812 34.554688 14.675781 34.625 15.507812 34.496094 C 16.902344 34.285156 17.417969 32.671875 17.597656 31.371094 C 17.714844 30.519531 18.59375 26.992188 19.726562 26.203125 L 19.738281 26.1875 C 20.117188 25.699219 20.441406 25.277344 21.328125 24.945312 C 22.601562 23.769531 24.679688 22.96875 25.890625 22.882812 C 25.890625 22.882812 25.90625 22.882812 25.90625 22.882812 C 26.039062 22.875 26.175781 22.894531 26.3125 22.914062 C 26.324219 22.898438 26.351562 22.871094 26.378906 22.871094 C 28.0625 21.832031 30.339844 21.664062 31.726562 22.011719 C 32.054688 22.101562 32.46875 22.253906 32.726562 22.507812 L 32.988281 22.316406 C 32.988281 22.128906 33.019531 21.964844 33.054688 21.816406 L 31.503906 20.964844 C 31.378906 20.894531 31.328125 20.734375 31.402344 20.609375 C 31.476562 20.484375 31.636719 20.433594 31.761719 20.507812 L 33.226562 21.324219 C 33.410156 20.949219 33.667969 20.761719 33.851562 20.671875 C 34.273438 20.457031 34.761719 20.496094 35.183594 20.769531 L 39.71875 17.542969 C 39.835938 17.457031 40.015625 17.484375 40.089844 17.601562 C 40.175781 17.71875 40.144531 17.894531 40.027344 17.96875 L 35.636719 21.105469 C 35.984375 21.542969 36.15625 22.164062 36.113281 22.851562 L 36.964844 23.324219 C 37.234375 23.027344 37.566406 22.902344 37.867188 22.976562 C 38.292969 23.085938 38.5625 23.542969 38.628906 24.25 L 39.3125 24.625 C 39.554688 24.34375 39.933594 24.148438 40.253906 24.023438 C 41.589844 23.503906 43.882812 23.425781 45.664062 24.261719 C 45.691406 24.273438 45.703125 24.289062 45.730469 24.300781 C 45.863281 24.25 46 24.230469 46.132812 24.222656 C 46.132812 24.222656 46.148438 24.222656 46.148438 24.222656 C 47.359375 24.167969 49.515625 24.726562 50.914062 25.75 C 51.832031 25.976562 52.207031 26.359375 52.636719 26.804688 L 52.652344 26.816406 C 53.878906 27.472656 55.144531 30.886719 55.351562 31.707031 C 55.683594 32.992188 56.378906 34.523438 57.789062 34.574219 C 58.628906 34.609375 59.285156 34.476562 59.859375 34.351562 C 60.742188 34.164062 61.515625 34 62.1875 34.835938 C 62.636719 35.386719 62.691406 36.550781 62.636719 37.492188 L 68.988281 40.996094 C 69.195312 40.796875 69.457031 40.671875 69.769531 40.667969 C 70.066406 40.664062 70.328125 40.785156 70.542969 40.988281 C 70.746094 41.191406 70.855469 41.464844 70.859375 41.746094 C 70.859375 42.027344 70.742188 42.304688 70.539062 42.515625 C 70.34375 42.703125 70.09375 42.8125 69.839844 42.824219 C 69.8125 42.828125 69.796875 42.828125 69.769531 42.828125 C 69.472656 42.832031 69.210938 42.714844 68.996094 42.511719 C 68.792969 42.308594 68.683594 42.03125 68.679688 41.75 C 68.675781 41.644531 68.695312 41.550781 68.71875 41.453125 L 62.601562 38.085938 C 62.453125 39.730469 61.972656 41.730469 61.402344 42.421875 C 61.160156 42.703125 60.910156 42.828125 60.640625 42.839844 C 60.128906 42.871094 59.527344 42.515625 58.8125 42.085938 C 57.566406 41.351562 55.691406 40.238281 52.671875 39.941406 C 49.871094 39.660156 48.382812 38.710938 46.34375 36.625 C 46.304688 37.40625 46.214844 38.164062 46.117188 38.828125 C 46.003906 39.679688 45.910156 40.410156 45.976562 40.875 C 46.066406 41.472656 46.511719 41.917969 47.066406 42.207031 C 47.121094 41.722656 47.339844 41.28125 47.699219 40.925781 C 48.378906 40.28125 49.125 40.132812 49.71875 40.539062 C 50.28125 40.925781 50.476562 41.71875 50.1875 42.378906 C 49.933594 42.929688 49.125 43.203125 48.117188 43.074219 C 47.96875 43.054688 47.832031 43.023438 47.679688 42.992188 C 47.921875 43.90625 48.703125 44.785156 49.53125 45.074219 C 49.667969 45.121094 49.746094 45.277344 49.699219 45.414062 C 49.664062 45.523438 49.558594 45.582031 49.464844 45.589844 C 49.4375 45.589844 49.398438 45.59375 49.355469 45.582031 C 48.320312 45.222656 47.394531 44.148438 47.140625 43.023438 C 47.125 42.945312 47.105469 42.878906 47.101562 42.8125 C 46.285156 42.46875 45.601562 41.847656 45.46875 40.972656 C 45.382812 40.4375 45.488281 39.667969 45.613281 38.773438 C 45.726562 37.949219 45.851562 37.015625 45.851562 36.105469 C 45.808594 36.066406 45.78125 36.015625 45.738281 35.976562 C 44.714844 34.867188 43.570312 34.25 42.660156 33.738281 C 41.628906 33.164062 40.804688 32.714844 41.039062 31.871094 C 41.140625 31.527344 41.371094 31.285156 41.714844 31.160156 C 41.796875 31.128906 41.886719 31.109375 41.980469 31.089844 C 39.617188 29.734375 38.359375 27.59375 38.148438 24.585938 L 37.128906 24.027344 C 36.796875 24.40625 36.402344 24.578125 36.070312 24.464844 C 35.796875 24.371094 35.507812 24.066406 35.5625 23.164062 L 33.988281 22.300781 L 33.570312 22.59375 C 33.496094 24.851562 32.402344 25.332031 31.742188 25.394531 C 31.179688 25.453125 30.613281 25.285156 30.179688 25 L 29.4375 25.527344 C 29.792969 26.058594 30.078125 26.578125 30.238281 26.984375 C 30.476562 27.613281 30.460938 28.058594 30.175781 28.261719 C 30.019531 28.390625 29.847656 28.441406 29.671875 28.453125 C 28.957031 28.492188 28.179688 27.652344 27.542969 26.949219 C 27.53125 26.925781 27.5 26.914062 27.488281 26.886719 L 26.578125 27.527344 C 26.886719 28.707031 26.980469 30.125 26.933594 30.664062 C 26.921875 30.757812 26.902344 30.878906 26.882812 30.988281 C 28.332031 29.871094 30.082031 28.964844 31.148438 29.214844 C 31.507812 29.300781 31.777344 29.511719 31.902344 29.84375 C 32.234375 30.65625 31.480469 31.195312 30.503906 31.882812 C 29.644531 32.480469 28.59375 33.238281 27.703125 34.457031 C 25.632812 37.273438 24.273438 38.558594 21.238281 39.214844 C 18.273438 39.855469 16.539062 41.175781 15.382812 42.046875 C 14.710938 42.554688 14.164062 42.976562 13.652344 43.003906 C 13.382812 43.019531 13.109375 42.929688 12.847656 42.675781 C 12.207031 42.066406 11.5 40.136719 11.164062 38.503906 L 5.472656 42.546875 C 5.503906 42.640625 5.535156 42.730469 5.542969 42.839844 C 5.570312 43.132812 5.492188 43.40625 5.316406 43.628906 C 5.140625 43.855469 4.878906 44.003906 4.582031 44.035156 C 4.554688 44.035156 4.542969 44.035156 4.515625 44.039062 C 4.246094 44.054688 3.984375 43.972656 3.785156 43.8125 C 3.558594 43.636719 3.410156 43.375 3.378906 43.082031 C 3.324219 42.832031 3.402344 42.558594 3.578125 42.320312 Z M 48.210938 42.546875 C 48.945312 42.652344 49.585938 42.480469 49.730469 42.164062 C 49.921875 41.738281 49.796875 41.234375 49.445312 40.984375 C 49.304688 40.886719 49.152344 40.839844 48.992188 40.851562 C 48.722656 40.867188 48.417969 41.015625 48.109375 41.304688 C 47.753906 41.644531 47.640625 42.042969 47.632812 42.40625 C 47.8125 42.476562 48.003906 42.515625 48.210938 42.546875 Z M 13.386719 35.046875 C 12.449219 34.96875 12.015625 34.953125 11.628906 35.550781 C 11.417969 35.886719 11.382812 36.625 11.519531 37.609375 L 15.054688 35.101562 C 14.40625 35.136719 13.847656 35.089844 13.386719 35.046875 Z M 18.160156 31.445312 C 18.050781 32.175781 17.894531 32.75 17.691406 33.21875 L 21.523438 30.488281 C 21.371094 29.949219 21.269531 29.550781 21.398438 29.246094 C 21.554688 28.890625 21.933594 28.667969 22.417969 28.625 C 22.972656 28.59375 23.484375 28.820312 23.75 29.207031 C 23.75 29.207031 23.75 29.207031 23.753906 29.222656 C 23.753906 29.222656 23.753906 29.222656 23.753906 29.234375 C 23.753906 29.234375 23.753906 29.234375 23.753906 29.246094 C 23.753906 29.261719 23.769531 29.261719 23.769531 29.273438 C 23.859375 29.441406 23.910156 29.613281 23.921875 29.816406 C 23.972656 31.878906 24.398438 31.988281 24.480469 31.996094 C 24.546875 31.992188 24.625 31.9375 24.699219 31.835938 C 25.050781 31.386719 25.359375 30.121094 24.9375 28.667969 C 24.90625 28.578125 24.875 28.484375 24.828125 28.394531 C 24.460938 27.664062 23.503906 27.019531 22.265625 26.675781 C 21.332031 26.40625 20.425781 26.390625 20.058594 26.613281 C 19.238281 27.144531 18.320312 30.230469 18.160156 31.445312 Z M 23.136719 29.351562 C 22.941406 29.214844 22.679688 29.160156 22.449219 29.175781 C 22.167969 29.191406 21.957031 29.308594 21.886719 29.476562 C 21.839844 29.585938 21.894531 29.863281 21.980469 30.167969 Z M 26.386719 30.625 C 26.480469 29.65625 26.121094 27.140625 25.515625 26.460938 C 25.484375 26.425781 25.457031 26.398438 25.429688 26.375 C 24.664062 25.773438 21.972656 25.28125 21.585938 25.410156 C 21.164062 25.570312 20.886719 25.734375 20.683594 25.933594 C 21.25 25.902344 21.90625 26.011719 22.441406 26.167969 C 23.816406 26.558594 24.898438 27.304688 25.328125 28.164062 C 25.390625 28.28125 25.4375 28.414062 25.472656 28.53125 C 25.910156 30.078125 25.640625 31.527344 25.136719 32.175781 C 25.023438 32.316406 24.90625 32.402344 24.804688 32.460938 C 24.984375 33.042969 25.195312 33.179688 25.265625 33.199219 C 25.304688 33.210938 25.375 33.234375 25.464844 33.175781 C 25.726562 33.011719 26.296875 31.652344 26.386719 30.625 Z M 25.726562 25.925781 C 25.84375 25.839844 25.960938 25.753906 26.078125 25.679688 C 25.898438 25.636719 25.726562 25.671875 25.503906 25.792969 C 25.585938 25.828125 25.65625 25.878906 25.726562 25.925781 Z M 31.617188 22.515625 C 30.425781 22.207031 28.496094 22.332031 26.972656 23.132812 C 27.460938 23.386719 27.945312 23.785156 28.40625 24.257812 C 28.773438 24.0625 29.199219 23.929688 29.652344 23.835938 C 29.652344 23.835938 29.652344 23.835938 29.664062 23.835938 C 29.664062 23.835938 29.679688 23.835938 29.679688 23.835938 C 30.039062 23.761719 30.402344 23.714844 30.75 23.667969 C 30.925781 23.644531 31.101562 23.621094 31.261719 23.597656 C 31.664062 23.535156 32.105469 23.453125 32.367188 23.292969 C 32.367188 23.292969 32.367188 23.292969 32.378906 23.292969 C 32.523438 23.1875 32.519531 23.121094 32.53125 23.082031 C 32.527344 23.054688 32.527344 23.015625 32.496094 22.976562 C 32.378906 22.808594 32.058594 22.640625 31.617188 22.515625 Z M 30.246094 24.285156 C 30.207031 24.289062 30.179688 24.304688 30.136719 24.304688 C 30.152344 24.316406 30.152344 24.332031 30.167969 24.34375 Z M 34.136719 21.109375 C 33.964844 21.199219 33.839844 21.355469 33.742188 21.550781 L 33.9375 21.660156 L 34.742188 21.089844 C 34.535156 21.007812 34.332031 21.019531 34.136719 21.109375 Z M 37.734375 23.507812 C 37.652344 23.488281 37.558594 23.519531 37.457031 23.605469 L 38.027344 23.921875 C 37.960938 23.671875 37.84375 23.53125 37.734375 23.507812 Z M 40.472656 24.535156 C 40.046875 24.691406 39.75 24.910156 39.679688 25.089844 C 39.667969 25.128906 39.65625 25.15625 39.65625 25.199219 C 39.660156 25.238281 39.664062 25.304688 39.832031 25.390625 C 39.832031 25.390625 39.832031 25.390625 39.84375 25.386719 C 40.109375 25.519531 40.554688 25.546875 40.976562 25.566406 C 41.140625 25.570312 41.316406 25.574219 41.492188 25.574219 C 42.289062 25.597656 43.183594 25.613281 43.890625 25.894531 C 44.277344 25.375 44.726562 24.921875 45.183594 24.613281 C 43.550781 23.996094 41.621094 24.078125 40.472656 24.535156 Z M 43.535156 26.34375 C 43.09375 26.195312 42.566406 26.144531 42.023438 26.121094 L 43.25 26.804688 C 43.351562 26.652344 43.4375 26.496094 43.535156 26.34375 Z M 46.191406 24.757812 C 45.367188 24.804688 44.3125 25.976562 43.578125 27.28125 C 43.378906 27.628906 43.210938 27.972656 43.082031 28.316406 C 42.75 29.140625 42.773438 29.554688 42.84375 29.605469 C 43.335938 29.898438 44.035156 28.933594 44.601562 28.148438 C 44.6875 28.035156 44.777344 27.910156 44.851562 27.800781 L 44.964844 27.660156 C 45.179688 27.378906 45.367188 27.125 45.570312 26.914062 C 45.597656 26.882812 45.609375 26.855469 45.632812 26.84375 C 46.097656 26.414062 46.613281 26.25 47.453125 26.722656 C 47.953125 26.453125 48.523438 26.246094 48.8125 26.148438 C 48.972656 26.101562 49.515625 25.910156 50.039062 25.796875 C 48.710938 25.070312 47.042969 24.722656 46.191406 24.757812 Z M 47.265625 29.796875 C 47.285156 29.671875 47.316406 29.539062 47.363281 29.414062 C 47.691406 28.507812 48.683594 27.648438 50.003906 27.101562 C 50.53125 26.882812 51.171875 26.699219 51.722656 26.667969 C 51.484375 26.492188 51.207031 26.363281 50.765625 26.253906 C 50.371094 26.15625 47.738281 26.964844 47.058594 27.644531 C 47.035156 27.675781 47.007812 27.703125 46.984375 27.746094 C 46.460938 28.5 46.386719 31.039062 46.589844 31.980469 C 46.808594 32.976562 47.53125 34.261719 47.796875 34.394531 C 47.910156 34.441406 47.960938 34.425781 48 34.398438 C 48.066406 34.367188 48.261719 34.207031 48.375 33.609375 C 48.265625 33.5625 48.136719 33.492188 48.007812 33.363281 C 47.4375 32.804688 47.003906 31.394531 47.265625 29.796875 Z M 46.710938 27.238281 C 46.777344 27.179688 46.839844 27.121094 46.917969 27.0625 C 46.683594 26.96875 46.507812 26.964844 46.335938 27.015625 C 46.460938 27.089844 46.597656 27.164062 46.710938 27.238281 Z M 46.398438 27.671875 C 46.242188 27.570312 46.035156 27.476562 45.855469 27.394531 C 45.714844 27.546875 45.578125 27.746094 45.402344 27.96875 L 46.15625 28.382812 C 46.222656 28.125 46.300781 27.878906 46.398438 27.671875 Z M 54.859375 31.859375 C 54.550781 30.667969 53.296875 27.707031 52.394531 27.289062 C 52.007812 27.109375 51.105469 27.226562 50.207031 27.601562 C 49.019531 28.085938 48.140625 28.832031 47.859375 29.601562 C 47.828125 29.695312 47.804688 29.792969 47.78125 29.886719 C 47.53125 31.378906 47.980469 32.601562 48.378906 33.007812 C 48.46875 33.09375 48.566406 33.15625 48.617188 33.140625 C 48.699219 33.121094 49.121094 32.964844 48.921875 30.910156 C 48.898438 30.707031 48.929688 30.519531 49.011719 30.351562 C 49.011719 30.339844 49.027344 30.339844 49.023438 30.324219 C 49.023438 30.324219 49.023438 30.324219 49.023438 30.3125 C 49.023438 30.3125 49.023438 30.3125 49.023438 30.300781 C 49.023438 30.300781 49.023438 30.300781 49.023438 30.285156 C 49.226562 29.859375 49.726562 29.574219 50.28125 29.554688 C 50.765625 29.527344 51.167969 29.71875 51.363281 30.058594 C 51.527344 30.332031 51.46875 30.75 51.378906 31.304688 L 55.5 33.578125 C 55.285156 33.136719 55.050781 32.570312 54.859375 31.859375 Z M 50.917969 31.023438 C 50.96875 30.710938 50.992188 30.429688 50.933594 30.324219 C 50.84375 30.167969 50.605469 30.074219 50.335938 30.089844 C 50.109375 30.101562 49.855469 30.183594 49.675781 30.34375 Z M 61.8125 35.191406 C 61.363281 34.640625 60.933594 34.703125 60.011719 34.890625 C 59.558594 34.984375 59.007812 35.097656 58.359375 35.121094 L 62.160156 37.210938 C 62.183594 36.230469 62.0625 35.5 61.8125 35.191406 Z M 69.421875 42.164062 C 69.523438 42.265625 69.660156 42.324219 69.808594 42.332031 C 69.957031 42.335938 70.089844 42.273438 70.207031 42.175781 C 70.324219 42.074219 70.367188 41.921875 70.359375 41.777344 C 70.363281 41.628906 70.304688 41.496094 70.203125 41.382812 C 70.101562 41.28125 69.960938 41.222656 69.8125 41.214844 C 69.800781 41.21875 69.785156 41.21875 69.785156 41.21875 C 69.503906 41.234375 69.261719 41.476562 69.265625 41.769531 C 69.257812 41.917969 69.308594 42.050781 69.421875 42.164062 Z M 52.75 39.414062 C 55.894531 39.730469 57.839844 40.882812 59.113281 41.640625 C 60.246094 42.3125 60.652344 42.519531 61.019531 42.09375 C 61.488281 41.546875 61.984375 39.582031 62.113281 37.816406 L 51.289062 31.859375 C 51.089844 33.066406 50.925781 34.726562 52.066406 36.203125 C 52.152344 36.320312 52.136719 36.484375 52.019531 36.582031 C 51.902344 36.671875 51.742188 36.652344 51.640625 36.539062 C 50.308594 34.800781 50.566406 32.910156 50.789062 31.59375 L 49.449219 30.851562 C 49.449219 30.851562 49.449219 30.863281 49.449219 30.863281 C 49.546875 31.90625 49.585938 33.285156 48.886719 33.609375 C 48.777344 34.273438 48.558594 34.699219 48.230469 34.878906 C 48.140625 34.941406 48.03125 34.960938 47.925781 34.964844 C 47.804688 34.972656 47.667969 34.941406 47.542969 34.878906 C 47.179688 34.710938 46.746094 33.984375 46.433594 33.238281 C 46.433594 33.238281 46.417969 33.238281 46.417969 33.238281 C 46.09375 33.015625 45.761719 32.820312 45.4375 32.636719 C 46.113281 33.550781 46.339844 34.707031 46.367188 35.875 C 48.4375 38.050781 49.824219 39.125 52.75 39.414062 Z M 41.546875 32 C 41.421875 32.425781 41.925781 32.71875 42.917969 33.253906 C 43.726562 33.703125 44.816406 34.296875 45.820312 35.273438 C 45.679688 33.765625 45.085938 32.402344 43.386719 31.734375 C 42.765625 31.554688 42.238281 31.519531 41.90625 31.632812 C 41.707031 31.722656 41.589844 31.824219 41.546875 32 Z M 43.546875 31.242188 C 44.382812 31.476562 45.300781 31.921875 46.144531 32.421875 C 46.109375 32.304688 46.074219 32.199219 46.058594 32.105469 C 45.945312 31.574219 45.878906 30.15625 46.050781 28.953125 L 45.074219 28.417969 C 45.0625 28.445312 45.035156 28.460938 45.023438 28.488281 C 44.460938 29.257812 43.796875 30.183594 43.082031 30.222656 C 42.90625 30.234375 42.742188 30.1875 42.5625 30.089844 C 42.253906 29.90625 42.1875 29.480469 42.351562 28.828125 C 42.464844 28.390625 42.6875 27.84375 42.980469 27.289062 L 40.859375 26.121094 C 40.398438 26.109375 39.9375 26.054688 39.589844 25.898438 C 39.589844 25.898438 39.574219 25.898438 39.574219 25.886719 C 39.210938 25.707031 39.117188 25.457031 39.105469 25.269531 C 39.105469 25.230469 39.101562 25.1875 39.101562 25.148438 L 38.667969 24.917969 C 38.824219 26.453125 39.453125 29.652344 43.546875 31.242188 Z M 36.230469 23.957031 C 36.300781 23.980469 36.460938 23.917969 36.625 23.746094 L 36.066406 23.441406 C 36.085938 23.777344 36.164062 23.933594 36.230469 23.957031 Z M 35.585938 22.570312 C 35.570312 22.101562 35.441406 21.707031 35.195312 21.425781 L 34.453125 21.953125 Z M 31.671875 24.863281 C 32.289062 24.785156 32.710938 24.320312 32.90625 23.503906 C 32.84375 23.585938 32.765625 23.660156 32.648438 23.734375 C 32.648438 23.734375 32.636719 23.734375 32.636719 23.746094 C 32.320312 23.9375 31.855469 24.046875 31.398438 24.113281 L 30.632812 24.652344 C 30.9375 24.808594 31.308594 24.910156 31.671875 24.863281 Z M 29.738281 24.652344 C 29.667969 24.574219 29.609375 24.496094 29.5625 24.417969 C 29.285156 24.488281 29.003906 24.570312 28.78125 24.679688 C 28.898438 24.820312 29.011719 24.960938 29.117188 25.101562 Z M 29.839844 27.851562 C 29.890625 27.78125 29.867188 27.367188 29.457031 26.597656 C 28.625 25.035156 26.988281 23.359375 25.976562 23.417969 C 25.976562 23.417969 25.976562 23.417969 25.960938 23.417969 C 25.113281 23.480469 23.496094 24.015625 22.261719 24.902344 C 22.792969 24.953125 23.351562 25.082031 23.503906 25.113281 C 23.804688 25.179688 24.394531 25.332031 24.921875 25.53125 C 25.699219 24.960938 26.246094 25.066406 26.742188 25.4375 C 26.769531 25.453125 26.796875 25.476562 26.8125 25.503906 C 27.039062 25.691406 27.269531 25.917969 27.5 26.175781 L 27.628906 26.300781 C 27.730469 26.402344 27.816406 26.503906 27.917969 26.621094 C 28.578125 27.308594 29.386719 28.1875 29.839844 27.851562 Z M 27.113281 26.519531 C 26.914062 26.300781 26.753906 26.125 26.597656 25.996094 C 26.425781 26.089844 26.230469 26.21875 26.089844 26.335938 C 26.207031 26.53125 26.316406 26.765625 26.414062 27.027344 Z M 13.195312 42.308594 C 13.609375 42.699219 14 42.433594 15.035156 41.636719 C 16.226562 40.738281 18.015625 39.375 21.101562 38.699219 C 24.09375 38.058594 25.332031 36.753906 27.253906 34.148438 C 28.191406 32.859375 29.335938 32.054688 30.183594 31.457031 C 31.09375 30.8125 31.558594 30.453125 31.402344 30.058594 C 31.335938 29.886719 31.210938 29.800781 31.019531 29.746094 C 30.167969 29.539062 28.351562 30.421875 26.6875 31.84375 C 26.6875 31.84375 26.675781 31.84375 26.675781 31.84375 C 26.449219 32.625 26.085938 33.394531 25.761719 33.601562 C 25.644531 33.675781 25.511719 33.722656 25.390625 33.730469 C 25.28125 33.738281 25.171875 33.714844 25.074219 33.683594 C 24.730469 33.539062 24.464844 33.140625 24.277344 32.492188 C 23.546875 32.253906 23.425781 30.875 23.410156 29.832031 C 23.410156 29.832031 23.40625 29.816406 23.40625 29.816406 L 22.160156 30.707031 C 22.53125 31.988281 23.015625 33.839844 21.878906 35.714844 C 21.804688 35.839844 21.644531 35.878906 21.503906 35.804688 C 21.378906 35.730469 21.34375 35.574219 21.414062 35.433594 C 22.378906 33.835938 22.027344 32.203125 21.691406 31.03125 L 11.617188 38.183594 C 11.949219 39.921875 12.664062 41.8125 13.195312 42.308594 Z M 4.089844 43.429688 C 4.203125 43.519531 4.351562 43.5625 4.5 43.542969 C 4.648438 43.519531 4.777344 43.445312 4.867188 43.332031 C 4.957031 43.222656 5 43.070312 4.980469 42.925781 C 4.949219 42.628906 4.691406 42.417969 4.394531 42.433594 C 4.382812 42.433594 4.371094 42.4375 4.371094 42.4375 C 4.222656 42.457031 4.089844 42.53125 4.003906 42.644531 C 3.914062 42.757812 3.867188 42.90625 3.890625 43.054688 C 3.898438 43.199219 3.972656 43.332031 4.089844 43.429688 Z M 4.089844 43.429688 " fill-opacity="1" fill-rule="nonzero"/></g></g></g><g fill="#000000" fill-opacity="1"><g transform="translate(64.768677, 25.729284)"><g><path d="M 5.410156 -5.097656 C 5.410156 -5.714844 5.421875 -6.054688 5.480469 -6.765625 L 4.515625 -6.765625 C 4.566406 -6.054688 4.582031 -5.714844 4.582031 -5.097656 L 4.582031 -3.449219 L 1.488281 -3.449219 L 1.488281 -5.097656 C 1.488281 -5.714844 1.503906 -6.054688 1.554688 -6.765625 L 0.59375 -6.765625 C 0.644531 -6.054688 0.660156 -5.714844 0.660156 -5.097656 L 0.660156 -1.664062 C 0.660156 -1.046875 0.644531 -0.710938 0.59375 0 L 1.554688 0 C 1.503906 -0.710938 1.488281 -1.046875 1.488281 -1.664062 L 1.488281 -3.316406 L 4.582031 -3.316406 L 4.582031 -1.664062 C 4.582031 -1.046875 4.566406 -0.710938 4.515625 0 L 5.480469 0 C 5.421875 -0.710938 5.410156 -1.046875 5.410156 -1.664062 Z M 5.410156 -5.097656 "/></g></g></g><g fill="#000000" fill-opacity="1"><g transform="translate(70.839913, 25.729284)"><g><path d="M 4.90625 -0.90625 L 3.253906 -6.765625 L 2.257812 -6.765625 C 2.316406 -6.578125 2.316406 -6.484375 2.273438 -6.308594 L 0.726562 -0.855469 C 0.632812 -0.542969 0.609375 -0.371094 0.421875 0 L 0.667969 0 C 0.703125 -0.363281 0.769531 -0.542969 0.863281 -0.863281 L 1.320312 -2.460938 L 3.585938 -2.460938 L 4.023438 -0.90625 C 4.125 -0.542969 4.1875 -0.378906 4.203125 0 L 5.261719 0 C 5.089844 -0.328125 5.015625 -0.515625 4.90625 -0.90625 Z M 1.351562 -2.597656 L 2.453125 -6.476562 L 3.550781 -2.597656 Z M 1.351562 -2.597656 "/></g></g></g><g fill="#000000" fill-opacity="1"><g transform="translate(76.522185, 25.729284)"><g><path d="M 5.632812 -5.097656 C 5.632812 -5.714844 5.648438 -6.054688 5.699219 -6.765625 L 5.445312 -6.765625 C 5.503906 -6.054688 5.511719 -5.714844 5.511719 -5.097656 L 5.511719 -0.328125 L 1.546875 -6.765625 L 0.59375 -6.765625 C 0.644531 -6.054688 0.660156 -5.714844 0.660156 -5.097656 L 0.660156 -1.664062 C 0.660156 -1.046875 0.644531 -0.710938 0.59375 0 L 0.84375 0 C 0.792969 -0.710938 0.777344 -1.046875 0.777344 -1.664062 L 0.777344 -6.433594 L 4.742188 0 L 5.699219 0 C 5.648438 -0.710938 5.632812 -1.046875 5.632812 -1.664062 Z M 5.632812 -5.097656 "/></g></g></g><g fill="#000000" fill-opacity="1"><g transform="translate(82.813268, 25.729284)"><g><path d="M 0.59375 0 L 2.382812 0 C 4.53125 0 5.828125 -1.226562 5.828125 -3.382812 C 5.828125 -5.632812 4.492188 -6.765625 2.382812 -6.765625 L 0.59375 -6.765625 C 0.644531 -6.054688 0.660156 -5.714844 0.660156 -5.097656 L 0.660156 -1.664062 C 0.660156 -1.046875 0.644531 -0.710938 0.59375 0 Z M 2.359375 -0.136719 L 1.488281 -0.136719 L 1.488281 -6.628906 L 2.359375 -6.628906 C 3.855469 -6.628906 4.914062 -5.582031 4.914062 -3.382812 C 4.914062 -1.269531 3.855469 -0.136719 2.359375 -0.136719 Z M 2.359375 -0.136719 "/></g></g></g><g fill="#000000" fill-opacity="1"><g transform="translate(89.146632, 25.729284)"><g><path d="M 0.59375 0 L 0.863281 0 C 0.804688 -0.710938 0.792969 -1.046875 0.792969 -1.664062 L 0.792969 -6.332031 L 3.722656 0.167969 L 3.871094 0.167969 L 6.65625 -6.359375 L 6.65625 -1.664062 C 6.65625 -1.046875 6.648438 -0.710938 6.597656 0 L 7.558594 0 C 7.5 -0.710938 7.492188 -1.046875 7.492188 -1.664062 L 7.492188 -5.097656 C 7.492188 -5.714844 7.5 -6.054688 7.558594 -6.765625 L 6.6875 -6.765625 L 4.167969 -0.957031 L 1.523438 -6.765625 L 0.59375 -6.765625 C 0.644531 -6.054688 0.660156 -5.714844 0.660156 -5.097656 L 0.660156 -1.664062 C 0.660156 -1.046875 0.644531 -0.710938 0.59375 0 Z M 0.59375 0 "/></g></g></g><g fill="#000000" fill-opacity="1"><g transform="translate(97.297981, 25.729284)"><g><path d="M 4.90625 -0.90625 L 3.253906 -6.765625 L 2.257812 -6.765625 C 2.316406 -6.578125 2.316406 -6.484375 2.273438 -6.308594 L 0.726562 -0.855469 C 0.632812 -0.542969 0.609375 -0.371094 0.421875 0 L 0.667969 0 C 0.703125 -0.363281 0.769531 -0.542969 0.863281 -0.863281 L 1.320312 -2.460938 L 3.585938 -2.460938 L 4.023438 -0.90625 C 4.125 -0.542969 4.1875 -0.378906 4.203125 0 L 5.261719 0 C 5.089844 -0.328125 5.015625 -0.515625 4.90625 -0.90625 Z M 1.351562 -2.597656 L 2.453125 -6.476562 L 3.550781 -2.597656 Z M 1.351562 -2.597656 "/></g></g></g><g fill="#000000" fill-opacity="1"><g transform="translate(102.980253, 25.729284)"><g><path d="M 0.59375 0 L 2.382812 0 C 4.53125 0 5.828125 -1.226562 5.828125 -3.382812 C 5.828125 -5.632812 4.492188 -6.765625 2.382812 -6.765625 L 0.59375 -6.765625 C 0.644531 -6.054688 0.660156 -5.714844 0.660156 -5.097656 L 0.660156 -1.664062 C 0.660156 -1.046875 0.644531 -0.710938 0.59375 0 Z M 2.359375 -0.136719 L 1.488281 -0.136719 L 1.488281 -6.628906 L 2.359375 -6.628906 C 3.855469 -6.628906 4.914062 -5.582031 4.914062 -3.382812 C 4.914062 -1.269531 3.855469 -0.136719 2.359375 -0.136719 Z M 2.359375 -0.136719 "/></g></g></g><g fill="#000000" fill-opacity="1"><g transform="translate(109.313616, 25.729284)"><g><path d="M 0.59375 -6.765625 C 0.660156 -6.054688 0.667969 -5.714844 0.667969 -5.097656 L 0.667969 -1.664062 C 0.667969 -1.046875 0.660156 -0.710938 0.59375 0 L 4.566406 0 L 4.8125 -0.457031 C 3.863281 -0.175781 3.289062 -0.136719 2.453125 -0.136719 L 1.503906 -0.136719 L 1.503906 -3.519531 L 2.046875 -3.519531 C 2.496094 -3.519531 2.953125 -3.519531 3.738281 -3.433594 L 3.738281 -3.738281 C 2.953125 -3.652344 2.496094 -3.652344 2.046875 -3.652344 L 1.503906 -3.652344 L 1.503906 -6.628906 L 2.273438 -6.628906 C 2.65625 -6.628906 3.484375 -6.578125 4.203125 -6.292969 L 4.582031 -6.765625 Z M 0.59375 -6.765625 "/></g></g></g><g fill="#000000" fill-opacity="1"><g transform="translate(79.978143, 35.687362)"><g><path d="M 3.582031 6.042969 C 3.558594 6.042969 3.53125 6.042969 3.503906 6.042969 C 3.191406 6.042969 3.074219 6.027344 3.074219 5.714844 C 3.074219 5.347656 3.464844 4.761719 3.648438 4.523438 C 4.25 3.726562 4.445312 3.609375 5.152344 2.941406 L 5.859375 2.316406 C 5.949219 2.25 6.015625 2.210938 6.09375 2.132812 C 6.210938 2.054688 6.25 1.988281 6.382812 1.949219 C 6.445312 2.695312 6.5 3.097656 6.09375 3.910156 C 6.027344 4.078125 5.910156 4.222656 5.820312 4.394531 C 5.703125 4.578125 5.609375 4.679688 5.464844 4.851562 C 5.113281 5.320312 4.183594 6.042969 3.582031 6.042969 Z M 0 -1.554688 C 0 -0.8125 0.273438 -0.289062 0.835938 -0.078125 C 1.425781 0.144531 2.132812 0.117188 2.957031 0.128906 L 4.015625 0.210938 C 5.046875 0.328125 5.742188 0.589844 6.210938 1.476562 L 5.164062 2.339844 C 4.460938 2.957031 3.84375 3.492188 3.269531 4.289062 C 2.875 4.8125 2.65625 5.230469 2.65625 5.871094 C 2.65625 6.421875 3.269531 6.472656 3.636719 6.472656 C 4.929688 6.472656 6.890625 4.378906 6.890625 2.535156 C 6.890625 2.210938 6.824219 1.921875 6.761719 1.648438 C 6.863281 1.492188 7.847656 0.730469 8.121094 0.511719 L 8.957031 -0.171875 C 9.492188 -0.691406 9.9375 -1.046875 10.511719 -1.609375 C 11.101562 -2.195312 10.867188 -1.855469 10.867188 -2.195312 C 10.800781 -2.210938 10.75 -2.234375 10.683594 -2.234375 C 10.578125 -2.234375 10.460938 -2.15625 10.160156 -1.84375 C 9.992188 -1.671875 9.832031 -1.570312 9.664062 -1.398438 L 8.65625 -0.511719 C 8.066406 -0.0390625 7.125 0.8125 6.550781 1.191406 C 6.40625 0.640625 5.570312 0.128906 5.0625 -0.0273438 C 4.144531 -0.328125 3.542969 -0.25 2.617188 -0.300781 C 1.910156 -0.328125 0.8125 -0.300781 0.5625 -0.96875 C 0.429688 -1.347656 0.484375 -1.726562 0.535156 -2.132812 C 0.652344 -2.785156 1.085938 -3.988281 1.464844 -4.578125 C 1.714844 -5.035156 1.855469 -5.320312 2.210938 -5.859375 L 3.753906 -7.703125 C 3.871094 -7.847656 3.976562 -7.898438 4.105469 -8.015625 C 4.316406 -8.226562 4.65625 -8.433594 4.902344 -8.589844 C 5.257812 -8.789062 5.636719 -8.929688 6.003906 -8.929688 C 6.421875 -8.929688 6.800781 -8.75 7.0625 -8.25 C 7.609375 -7.191406 7.386719 -5.703125 7.207031 -4.589844 C 7.140625 -4.328125 6.695312 -2.785156 7.101562 -2.785156 C 7.386719 -2.785156 7.441406 -3.136719 7.53125 -3.542969 C 7.78125 -4.472656 8.027344 -5.570312 8.027344 -6.605469 C 8.027344 -7.949219 7.453125 -9.390625 6.210938 -9.480469 C 4.929688 -9.480469 4.027344 -8.734375 3.152344 -7.886719 C 2.65625 -7.363281 1.949219 -6.5 1.609375 -5.882812 C 0.851562 -4.695312 0 -2.957031 0 -1.554688 Z M 0 -1.554688 "/></g></g></g><g fill="#000000" fill-opacity="1"><g transform="translate(90.383831, 35.687362)"><g><path d="M -3.675781 -5.832031 C -3.675781 -5.648438 -3.542969 -5.609375 -3.398438 -5.609375 C -3.320312 -5.609375 -3.242188 -5.621094 -3.175781 -5.636719 C -3.058594 -5.882812 -3.191406 -5.832031 -2.863281 -5.960938 C -2.707031 -6.027344 -2.589844 -6.121094 -2.433594 -6.183594 C -1.621094 -6.5 -0.875 -6.722656 -0.0117188 -6.929688 C 0.117188 -6.96875 0.417969 -7.023438 0.496094 -7.046875 L 0.378906 -5.832031 C 0.367188 -5.664062 0.351562 -5.375 0.328125 -5.203125 C 0.261719 -4.824219 0.25 -3.058594 0.25 -2.5625 L 0.210938 -1.949219 C 0.210938 -0.992188 0.171875 0.5625 0.25 1.503906 C 0.25 1.816406 0.261719 2.289062 0.601562 2.289062 C 0.941406 2.289062 0.746094 1.386719 0.746094 1.085938 C 0.71875 0.511719 0.730469 -2.105469 0.773438 -2.496094 C 0.796875 -2.773438 0.773438 -3.359375 0.773438 -3.738281 C 0.773438 -3.921875 0.8125 -3.921875 0.8125 -4.09375 C 0.8125 -4.222656 0.796875 -4.378906 0.8125 -4.5 L 1.074219 -7.179688 C 1.386719 -7.246094 3.375 -7.625 4.09375 -7.625 C 4.183594 -7.625 4.25 -7.625 4.300781 -7.609375 C 4.460938 -7.570312 4.417969 -7.625 4.460938 -7.492188 C 4.957031 -7.492188 4.800781 -8.015625 4.183594 -8.015625 C 3.386719 -8.015625 2.617188 -7.886719 1.855469 -7.742188 C 1.660156 -7.714844 1.386719 -7.636719 1.175781 -7.636719 C 1.175781 -8.054688 1.4375 -7.714844 1.4375 -8.054688 C 1.4375 -8.132812 1.425781 -8.1875 1.425781 -8.226562 C 1.414062 -8.355469 1.4375 -8.25 1.4375 -8.40625 C 1.4375 -8.617188 1.332031 -8.789062 1.191406 -8.789062 C 1.019531 -8.789062 0.8125 -8.550781 0.679688 -7.847656 C 0.589844 -7.402344 0.628906 -7.519531 0.078125 -7.375 C -0.667969 -7.164062 -3.675781 -6.421875 -3.675781 -5.832031 Z M -3.675781 -5.832031 "/></g></g></g><g fill="#000000" fill-opacity="1"><g transform="translate(91.900241, 35.687362)"><g><path d="M 0.652344 -0.300781 C 0.367188 -0.902344 0.96875 -2.078125 1.058594 -2.457031 C 1.515625 -2.15625 1.191406 -0.445312 0.652344 -0.300781 Z M 0 -0.746094 C 0 -0.0664062 0.289062 0.273438 0.628906 0.273438 C 1.019531 0.273438 1.503906 -0.183594 1.699219 -1.085938 C 1.988281 -2.433594 1.359375 -2.65625 1.292969 -2.902344 C 1.359375 -3.007812 1.476562 -3.085938 1.515625 -3.175781 C 1.554688 -3.28125 1.476562 -3.492188 1.308594 -3.492188 C 0.667969 -3.492188 0 -1.332031 0 -0.746094 Z M 0 -0.746094 "/></g></g></g><g fill="#000000" fill-opacity="1"><g transform="translate(94.200994, 35.687362)"><g><path d="M 0.183594 -0.0507812 C 0.589844 -0.0507812 0.429688 -0.496094 0.511719 -0.835938 C 0.5625 -1.152344 0.679688 -1.414062 0.8125 -1.632812 C 1.019531 -1.972656 1.085938 -1.972656 1.582031 -1.972656 C 1.726562 -1.972656 1.921875 -1.960938 2.09375 -1.960938 C 2.355469 -1.960938 2.5625 -1.988281 2.5625 -2.171875 C 2.5625 -2.339844 2.15625 -2.367188 1.777344 -2.367188 C 1.554688 -2.367188 1.332031 -2.355469 1.214844 -2.355469 C 0.8125 -2.355469 0.730469 -2.105469 0.535156 -1.972656 C 0.535156 -2.144531 0.5625 -2.132812 0.5625 -2.316406 C 0.5625 -2.445312 0.5625 -2.601562 0.574219 -2.734375 C 0.613281 -3.097656 0.679688 -3.347656 0.328125 -3.347656 C 0.0390625 -3.347656 0.0117188 -1.988281 0.0117188 -1.753906 C 0.0273438 -1.425781 0.0117188 -1.097656 0.0273438 -0.785156 C 0.0273438 -0.691406 -0.078125 -0.0507812 0.183594 -0.0507812 Z M 0.183594 -0.0507812 "/></g></g></g><g fill="#000000" fill-opacity="1"><g transform="translate(96.331809, 35.687362)"><g><path d="M 0.601562 -2.367188 C 0.691406 -2.695312 1.125 -3.203125 1.476562 -3.269531 C 1.4375 -2.851562 0.929688 -2.535156 0.601562 -2.367188 Z M 0.0117188 -2.054688 C 0.0117188 -1.6875 0 -1.359375 0.3125 -1.046875 C 0.535156 -0.824219 0.796875 -0.730469 1.074219 -0.730469 C 1.871094 -0.730469 2.773438 -1.53125 3.257812 -2.015625 C 3.375 -2.15625 3.375 -2.171875 3.335938 -2.367188 C 2.941406 -2.367188 3.152344 -2.316406 2.617188 -1.894531 C 2.523438 -1.832031 2.484375 -1.777344 2.378906 -1.699219 C 2.117188 -1.503906 1.570312 -1.125 1.113281 -1.125 C 0.953125 -1.125 0.796875 -1.175781 0.679688 -1.292969 C 0.457031 -1.515625 0.484375 -1.726562 0.484375 -2 C 0.890625 -2.027344 1.359375 -2.40625 1.570312 -2.640625 C 1.972656 -3.152344 1.972656 -3.675781 1.398438 -3.675781 C 0.773438 -3.675781 0.0117188 -2.707031 0.0117188 -2.054688 Z M 0.0117188 -2.054688 "/></g></g></g></svg>